<svg width="21" height="20" viewBox="0 0 21 20" fill="none" xmlns="http://www.w3.org/2000/svg">
<path d="M10.9167 2.50008H7C5.59987 2.50008 4.8998 2.50008 4.36502 2.77257C3.89462 3.01225 3.51217 3.3947 3.27248 3.86511C3 4.39988 3 5.09995 3 6.50008V13.5001C3 14.9002 3 15.6003 3.27248 16.1351C3.51217 16.6055 3.89462 16.9879 4.36502 17.2276C4.8998 17.5001 5.59987 17.5001 7 17.5001H14.6667C15.4416 17.5001 15.8291 17.5001 16.147 17.4149C17.0098 17.1837 17.6836 16.5099 17.9148 15.6471C18 15.3292 18 14.9417 18 14.1667M16.3333 6.66675V1.66675M13.8333 4.16675H18.8333M9.25 7.08341C9.25 8.00389 8.50381 8.75008 7.58333 8.75008C6.66286 8.75008 5.91667 8.00389 5.91667 7.08341C5.91667 6.16294 6.66286 5.41675 7.58333 5.41675C8.50381 5.41675 9.25 6.16294 9.25 7.08341ZM12.9917 9.93187L5.94262 16.3401C5.54614 16.7006 5.34789 16.8808 5.33036 17.0369C5.31516 17.1722 5.36704 17.3064 5.46932 17.3964C5.58732 17.5001 5.85523 17.5001 6.39107 17.5001H14.2133C15.4126 17.5001 16.0123 17.5001 16.4833 17.2986C17.0745 17.0457 17.5456 16.5746 17.7985 15.9833C18 15.5124 18 14.9127 18 13.7134C18 13.3099 18 13.1081 17.9559 12.9202C17.9005 12.6841 17.7941 12.4629 17.6444 12.2721C17.5252 12.1202 17.3677 11.9942 17.0526 11.7421L14.7215 9.8773C14.4062 9.62501 14.2485 9.49886 14.0748 9.45434C13.9218 9.4151 13.7607 9.42018 13.6104 9.46899C13.44 9.52437 13.2905 9.6602 12.9917 9.93187Z" stroke="#344054" stroke-width="1.66667" stroke-linecap="round" stroke-linejoin="round"/>
</svg>
