<svg width="68" height="68" viewBox="0 0 68 68" fill="none" xmlns="http://www.w3.org/2000/svg">
<rect width="68" height="68" rx="34" fill="#F9FAFB"/>
<path d="M34.6667 22.0003H28.4C26.1598 22.0003 25.0397 22.0003 24.184 22.4363C23.4314 22.8198 22.8195 23.4317 22.436 24.1844C22 25.04 22 26.1601 22 28.4003V39.6003C22 41.8405 22 42.9606 22.436 43.8163C22.8195 44.5689 23.4314 45.1809 24.184 45.5644C25.0397 46.0003 26.1598 46.0003 28.4 46.0003H40.6667C41.9066 46.0003 42.5266 46.0003 43.0353 45.864C44.4156 45.4942 45.4938 44.416 45.8637 43.0356C46 42.5269 46 41.907 46 40.667M43.3333 28.667V20.667M39.3333 24.667H47.3333M32 29.3337C32 30.8064 30.8061 32.0003 29.3333 32.0003C27.8606 32.0003 26.6667 30.8064 26.6667 29.3337C26.6667 27.8609 27.8606 26.667 29.3333 26.667C30.8061 26.667 32 27.8609 32 29.3337ZM37.9867 33.8912L26.7082 44.1444C26.0738 44.7211 25.7566 45.0095 25.7286 45.2593C25.7043 45.4758 25.7873 45.6905 25.9509 45.8344C26.1397 46.0003 26.5684 46.0003 27.4257 46.0003H39.9413C41.8602 46.0003 42.8196 46.0003 43.5732 45.678C44.5193 45.2733 45.2729 44.5196 45.6776 43.5735C46 42.82 46 41.8605 46 39.9416C46 39.296 46 38.9732 45.9294 38.6725C45.8407 38.2947 45.6706 37.9408 45.431 37.6355C45.2403 37.3926 44.9883 37.1909 44.4841 36.7876L40.7544 33.8039C40.2499 33.4002 39.9976 33.1984 39.7197 33.1271C39.4748 33.0644 39.2172 33.0725 38.9767 33.1506C38.7039 33.2392 38.4648 33.4565 37.9867 33.8912Z" stroke="#475467" stroke-width="2" stroke-linecap="round" stroke-linejoin="round"/>
</svg>
