<svg width="21" height="20" viewBox="0 0 21 20" fill="none" xmlns="http://www.w3.org/2000/svg">
<path d="M18.1189 14.2872C17.8416 14.9277 17.5134 15.5173 17.1332 16.0594C16.6149 16.7984 16.1905 17.3099 15.8635 17.5939C15.3565 18.0602 14.8133 18.2989 14.2316 18.3125C13.8141 18.3125 13.3105 18.1937 12.7243 17.9527C12.1362 17.7127 11.5957 17.5939 11.1015 17.5939C10.5832 17.5939 10.0273 17.7127 9.43276 17.9527C8.83728 18.1937 8.35757 18.3193 7.99081 18.3318C7.43302 18.3555 6.87704 18.11 6.32207 17.5939C5.96787 17.285 5.52483 16.7554 4.99408 16.0051C4.42464 15.2039 3.95647 14.2748 3.5897 13.2156C3.19691 12.0715 3 10.9636 3 9.89099C3 8.66235 3.26549 7.60267 3.79725 6.71466C4.21517 6.00138 4.77115 5.43873 5.467 5.02567C6.16285 4.61262 6.91472 4.40213 7.72442 4.38867C8.16746 4.38867 8.74845 4.52571 9.47044 4.79504C10.1904 5.06528 10.6527 5.20232 10.8554 5.20232C11.0069 5.20232 11.5204 5.04208 12.391 4.72262C13.2143 4.42635 13.9091 4.30368 14.4783 4.352C16.0208 4.47648 17.1796 5.08452 17.9502 6.17996C16.5708 7.0158 15.8884 8.18649 15.9019 9.68831C15.9144 10.8581 16.3388 11.8315 17.1728 12.6045C17.5508 12.9632 17.9729 13.2405 18.4425 13.4374C18.3407 13.7327 18.2332 14.0156 18.1189 14.2872ZM14.5813 0.366771C14.5813 1.28365 14.2463 2.13973 13.5787 2.93211C12.7729 3.8741 11.7984 4.41843 10.7415 4.33254C10.728 4.22254 10.7202 4.10677 10.7202 3.98512C10.7202 3.10492 11.1034 2.16293 11.7839 1.39273C12.1236 1.00276 12.5557 0.678507 13.0796 0.419845C13.6024 0.165042 14.097 0.0241305 14.5621 0C14.5757 0.122572 14.5813 0.245152 14.5813 0.366759V0.366771Z" fill="black"/>
</svg>
