<svg width="38" height="38" viewBox="0 0 38 38" fill="none" xmlns="http://www.w3.org/2000/svg">
<path d="M14.5 18.25V21.25M23.5 16.75V19.75M22.75 13C24.5865 13 25.5799 13.2811 26.0741 13.4991C26.1399 13.5281 26.1728 13.5426 26.2678 13.6333C26.3247 13.6876 26.4287 13.847 26.4554 13.9211C26.5 14.0446 26.5 14.1121 26.5 14.2471V22.3084C26.5 22.9899 26.5 23.3307 26.3978 23.5059C26.2938 23.6841 26.1936 23.7669 25.999 23.8354C25.8077 23.9027 25.4215 23.8285 24.6491 23.6801C24.1085 23.5762 23.4674 23.5 22.75 23.5C20.5 23.5 18.25 25 15.25 25C13.4135 25 12.4202 24.7189 11.9259 24.5009C11.8601 24.4719 11.8272 24.4574 11.7322 24.3667C11.6753 24.3124 11.5713 24.153 11.5446 24.0789C11.5 23.9554 11.5 23.8879 11.5 23.7529L11.5 15.6916C11.5 15.0101 11.5 14.6693 11.6022 14.4941C11.7062 14.3159 11.8064 14.2331 12.001 14.1646C12.1924 14.0973 12.5785 14.1715 13.3509 14.3199C13.8915 14.4238 14.5326 14.5 15.25 14.5C17.5 14.5 19.75 13 22.75 13ZM20.875 19C20.875 20.0355 20.0355 20.875 19 20.875C17.9645 20.875 17.125 20.0355 17.125 19C17.125 17.9645 17.9645 17.125 19 17.125C20.0355 17.125 20.875 17.9645 20.875 19Z" stroke="#039855" stroke-width="1.5" stroke-linecap="round" stroke-linejoin="round"/>
</svg>
