<svg width="16" height="16" viewBox="0 0 16 16" fill="none" xmlns="http://www.w3.org/2000/svg">
<path d="M3.9987 7.33341V10.0001M11.9987 6.00008V8.66675M11.332 2.66675C12.9645 2.66675 13.8475 2.91659 14.2868 3.11038C14.3453 3.13618 14.3745 3.14909 14.459 3.22966C14.5096 3.27796 14.602 3.41968 14.6257 3.48547C14.6654 3.59524 14.6654 3.65524 14.6654 3.77524V10.9408C14.6654 11.5467 14.6654 11.8496 14.5745 12.0053C14.4821 12.1637 14.393 12.2373 14.22 12.2982C14.0499 12.358 13.7067 12.2921 13.0201 12.1602C12.5396 12.0679 11.9697 12.0001 11.332 12.0001C9.33203 12.0001 7.33203 13.3334 4.66536 13.3334C3.03289 13.3334 2.14994 13.0836 1.71062 12.8898C1.65211 12.864 1.62286 12.8511 1.53843 12.7705C1.48782 12.7222 1.39544 12.5805 1.37168 12.5147C1.33203 12.4049 1.33203 12.3449 1.33203 12.2249L1.33203 5.05932C1.33203 4.45347 1.33203 4.15055 1.42288 3.99484C1.5153 3.83646 1.60443 3.76283 1.7774 3.70196C1.94746 3.64212 2.29072 3.70807 2.97725 3.83998C3.45778 3.93231 4.02768 4.00008 4.66536 4.00008C6.66536 4.00008 8.66536 2.66675 11.332 2.66675ZM9.66536 8.00008C9.66536 8.92056 8.91917 9.66675 7.9987 9.66675C7.07822 9.66675 6.33203 8.92056 6.33203 8.00008C6.33203 7.07961 7.07822 6.33341 7.9987 6.33341C8.91917 6.33341 9.66536 7.07961 9.66536 8.00008Z" stroke="#1D2939" stroke-width="1.5" stroke-linecap="round" stroke-linejoin="round"/>
</svg>
