<svg width="38" height="38" viewBox="0 0 38 38" fill="none" xmlns="http://www.w3.org/2000/svg">
<path d="M25.75 18.625V16.6C25.75 15.3399 25.75 14.7098 25.5048 14.2285C25.2891 13.8052 24.9448 13.461 24.5215 13.2452C24.0402 13 23.4101 13 22.15 13H15.85C14.5899 13 13.9598 13 13.4785 13.2452C13.0552 13.461 12.711 13.8052 12.4952 14.2285C12.25 14.7098 12.25 15.3399 12.25 16.6V22.9C12.25 24.1601 12.25 24.7902 12.4952 25.2715C12.711 25.6948 13.0552 26.0391 13.4785 26.2548C13.9598 26.5 14.5899 26.5 15.85 26.5H19.375M25.75 17.5H12.25M22 11.5V14.5M16 11.5V14.5M23.5 25.75V21.25M21.25 23.5H25.75" stroke="#326144" stroke-width="1.5" stroke-linecap="round" stroke-linejoin="round"/>
</svg>
