<svg width="20" height="20" viewBox="0 0 20 20" fill="none" xmlns="http://www.w3.org/2000/svg">
<path d="M18.3346 9.58341V12.1667C18.3346 14.0336 18.3346 14.967 17.9713 15.68C17.6517 16.3073 17.1418 16.8172 16.5146 17.1368C15.8016 17.5001 14.8681 17.5001 13.0013 17.5001H7.0013C5.13446 17.5001 4.20104 17.5001 3.488 17.1368C2.86079 16.8172 2.35086 16.3073 2.03128 15.68C1.66797 14.967 1.66797 14.0336 1.66797 12.1667V7.83341C1.66797 5.96657 1.66797 5.03315 2.03128 4.32011C2.35086 3.69291 2.86079 3.18297 3.488 2.86339C4.20104 2.50008 5.13446 2.50008 7.0013 2.50008H10.418M15.8346 6.66675V1.66675M13.3346 4.16675H18.3346M13.3346 10.0001C13.3346 11.841 11.8423 13.3334 10.0013 13.3334C8.16035 13.3334 6.66797 11.841 6.66797 10.0001C6.66797 8.15913 8.16035 6.66675 10.0013 6.66675C11.8423 6.66675 13.3346 8.15913 13.3346 10.0001Z" stroke="white" stroke-width="1.66667" stroke-linecap="round" stroke-linejoin="round"/>
</svg>
