<svg width="36" height="36" viewBox="0 0 36 36" fill="none" xmlns="http://www.w3.org/2000/svg">
<rect x="1" y="1" width="34" height="34" rx="17" fill="#326144"/>
<rect x="1" y="1" width="34" height="34" rx="17" stroke="white" stroke-width="2"/>
<path d="M26.3346 17.5834V20.1667C26.3346 22.0336 26.3346 22.967 25.9713 23.68C25.6517 24.3073 25.1418 24.8172 24.5146 25.1368C23.8016 25.5001 22.8681 25.5001 21.0013 25.5001H15.0013C13.1345 25.5001 12.201 25.5001 11.488 25.1368C10.8608 24.8172 10.3509 24.3073 10.0313 23.68C9.66797 22.967 9.66797 22.0336 9.66797 20.1667V15.8334C9.66797 13.9666 9.66797 13.0332 10.0313 12.3201C10.3509 11.6929 10.8608 11.183 11.488 10.8634C12.201 10.5001 13.1345 10.5001 15.0013 10.5001H18.418M23.8346 14.6667V9.66675M21.3346 12.1667H26.3346M21.3346 18.0001C21.3346 19.841 19.8423 21.3334 18.0013 21.3334C16.1604 21.3334 14.668 19.841 14.668 18.0001C14.668 16.1591 16.1604 14.6667 18.0013 14.6667C19.8423 14.6667 21.3346 16.1591 21.3346 18.0001Z" stroke="white" stroke-width="1.66667" stroke-linecap="round" stroke-linejoin="round"/>
</svg>
