<svg width="18" height="18" viewBox="0 0 18 18" fill="none" xmlns="http://www.w3.org/2000/svg">
<g clip-path="url(#clip0_19723_21459)">
<path d="M16.5014 11.5146H14.4058C14.0722 11.5146 13.7528 11.6471 13.5164 11.8826C13.2809 12.1182 13.1484 12.4384 13.1484 12.772C13.1484 13.1056 13.2809 13.425 13.5164 13.6614C13.752 13.8969 14.0722 14.0294 14.4058 14.0294H15.244C15.5776 14.0294 15.897 14.1618 16.1334 14.3973C16.3689 14.6329 16.5014 14.9531 16.5014 15.2867C16.5014 15.6203 16.3689 15.9397 16.1334 16.1761C15.8978 16.4116 15.5776 16.5441 15.244 16.5441H13.1484" stroke="#1D2939" stroke-width="1.125" stroke-linecap="round" stroke-linejoin="round"/>
<path d="M14.8242 16.5444V17.3826M14.8242 10.6768V11.515" stroke="#1D2939" stroke-width="1.125" stroke-linecap="round" stroke-linejoin="round"/>
<path d="M9.79412 16.5439H3.92647C3.48221 16.5439 3.05554 16.367 2.74121 16.0527C2.42687 15.7383 2.25 15.3117 2.25 14.8674V6.48506C2.25 6.0408 2.42687 5.61414 2.74121 5.2998C3.05554 4.98546 3.48221 4.80859 3.92647 4.80859H5.60294M15.6618 7.42389V6.48506C15.6618 6.0408 15.4849 5.61414 15.1706 5.2998C14.8562 4.98546 14.4296 4.80859 13.9853 4.80859H12.3088" stroke="#1D2939" stroke-width="1.5" stroke-linecap="round" stroke-linejoin="round"/>
<path d="M12.3097 7.32405V2.29463C12.3097 1.85037 12.1329 1.42371 11.8185 1.10937C11.5042 0.795032 11.0775 0.618164 10.6333 0.618164H7.28033C6.83607 0.618164 6.4094 0.795032 6.09507 1.10937C5.78073 1.42371 5.60386 1.85037 5.60386 2.29463V7.32405M12.3097 7.32405H5.60386M12.3097 7.32405H13.148M5.60386 7.32405H4.76562" stroke="#1D2939" stroke-width="1.5" stroke-linecap="round" stroke-linejoin="round"/>
<path d="M5.60156 10.6768V10.6851" stroke="#1D2939" stroke-width="1.5" stroke-linecap="round" stroke-linejoin="round"/>
<path d="M5.60156 13.1914V13.1998" stroke="#1D2939" stroke-width="1.5" stroke-linecap="round" stroke-linejoin="round"/>
<path d="M8.95703 10.668V10.6764" stroke="#1D2939" stroke-width="1.5" stroke-linecap="round" stroke-linejoin="round"/>
<path d="M8.95703 13.1914V13.1998" stroke="#1D2939" stroke-width="1.5" stroke-linecap="round" stroke-linejoin="round"/>
</g>
<defs>
<clipPath id="clip0_19723_21459">
<rect width="18" height="18" fill="white"/>
</clipPath>
</defs>
</svg>
