<svg width="52" height="52" viewBox="0 0 52 52" fill="none" xmlns="http://www.w3.org/2000/svg">
<path d="M7.05273 17.3946C7.05273 13.8574 7.05273 12.0888 7.74111 10.7378C8.34663 9.5494 9.31282 8.5832 10.5012 7.97769C11.8522 7.28931 13.6208 7.28931 17.158 7.28931H34.8422C38.3794 7.28931 40.148 7.28931 41.499 7.97769C42.6874 8.5832 43.6536 9.5494 44.2591 10.7378C44.9475 12.0888 44.9475 13.8574 44.9475 17.3946V35.0788C44.9475 38.616 44.9475 40.3845 44.2591 41.7356C43.6536 42.924 42.6874 43.8901 41.499 44.4957C40.148 45.184 38.3794 45.184 34.8422 45.184H17.158C13.6208 45.184 11.8522 45.184 10.5012 44.4957C9.31282 43.8901 8.34663 42.924 7.74111 41.7356C7.05273 40.3845 7.05273 38.616 7.05273 35.0788V17.3946Z" stroke="black" stroke-width="4.21053" stroke-linecap="round" stroke-linejoin="round"/>
</svg>
