<svg width="52" height="52" viewBox="0 0 52 52" fill="none" xmlns="http://www.w3.org/2000/svg">
<path d="M16.5264 25.7632L22.8422 32.079L35.4738 19.4474M17.158 44.7105H34.8422C38.3794 44.7105 40.148 44.7105 41.499 44.0222C42.6874 43.4166 43.6536 42.4504 44.2591 41.2621C44.9475 39.911 44.9475 38.1424 44.9475 34.6053V16.9211C44.9475 13.3839 44.9475 11.6153 44.2591 10.2643C43.6536 9.07589 42.6874 8.10969 41.499 7.50418C40.148 6.8158 38.3794 6.8158 34.8422 6.8158H17.158C13.6208 6.8158 11.8522 6.8158 10.5012 7.50418C9.31282 8.10969 8.34663 9.07589 7.74111 10.2643C7.05273 11.6153 7.05273 13.3839 7.05273 16.9211V34.6053C7.05273 38.1424 7.05273 39.911 7.74111 41.2621C8.34663 42.4504 9.31282 43.4166 10.5012 44.0222C11.8522 44.7105 13.6208 44.7105 17.158 44.7105Z" stroke="black" stroke-width="4.21053" stroke-linecap="round" stroke-linejoin="round"/>
</svg>
