<svg width="48" height="49" viewBox="0 0 48 49" fill="none" xmlns="http://www.w3.org/2000/svg">
<rect y="0.5" width="48" height="48" rx="8" fill="#CEECDA"/>
<path d="M34 23.5857V24.5057C33.9988 26.6621 33.3005 28.7604 32.0093 30.4875C30.7182 32.2147 28.9033 33.4782 26.8354 34.0896C24.7674 34.701 22.5573 34.6276 20.5345 33.8803C18.5117 33.133 16.7847 31.7518 15.611 29.9428C14.4373 28.1338 13.8798 25.9938 14.0217 23.842C14.1636 21.6903 14.9972 19.6421 16.3983 18.0028C17.7994 16.3635 19.6928 15.2211 21.7962 14.7459C23.8996 14.2706 26.1003 14.4881 28.07 15.3657M34 16.5L24 26.51L21 23.51" stroke="#326144" stroke-width="2" stroke-linecap="round" stroke-linejoin="round"/>
</svg>
