<svg width="36" height="36" viewBox="0 0 36 36" fill="none" xmlns="http://www.w3.org/2000/svg">
<g clip-path="url(#clip0_21460_12126)">
<path d="M17.168 11.3332H13.668C12.2678 11.3332 11.5678 11.3332 11.033 11.6057C10.5626 11.8454 10.1801 12.2278 9.94045 12.6982C9.66797 13.233 9.66797 13.9331 9.66797 15.3332V22.3332C9.66797 23.7333 9.66797 24.4334 9.94045 24.9682C10.1801 25.4386 10.5626 25.821 11.033 26.0607C11.5678 26.3332 12.2678 26.3332 13.668 26.3332H20.668C22.0681 26.3332 22.7682 26.3332 23.3029 26.0607C23.7734 25.821 24.1558 25.4386 24.3955 24.9682C24.668 24.4334 24.668 23.7333 24.668 22.3332V18.8332M14.6679 21.3332H16.0634C16.4711 21.3332 16.6749 21.3332 16.8667 21.2871C17.0367 21.2463 17.1993 21.179 17.3484 21.0876C17.5166 20.9845 17.6608 20.8404 17.949 20.5521L25.918 12.5832C26.6083 11.8928 26.6083 10.7736 25.918 10.0832C25.2276 9.39284 24.1083 9.39284 23.418 10.0832L15.449 18.0521C15.1607 18.3404 15.0166 18.4845 14.9135 18.6527C14.8222 18.8018 14.7548 18.9644 14.714 19.1345C14.6679 19.3263 14.6679 19.5301 14.6679 19.9378V21.3332Z" stroke="#475467" stroke-width="1.66667" stroke-linecap="round" stroke-linejoin="round"/>
</g>
<defs>
<clipPath id="clip0_21460_12126">
<rect width="20" height="20" fill="white" transform="translate(8 8)"/>
</clipPath>
</defs>
</svg>
