<svg width="143" height="125" viewBox="0 0 143 125" fill="none" xmlns="http://www.w3.org/2000/svg">
<circle cx="71.3457" cy="54.0678" r="48.4746" fill="#C2D8C7"/>
<circle cx="20.0751" cy="23.3051" r="4.66102" fill="#E0EBE2"/>
<circle cx="17.2793" cy="101.61" r="6.52542" fill="#E0EBE2"/>
<circle cx="135.67" cy="38.2202" r="6.52542" fill="#E0EBE2"/>
<circle cx="125.416" cy="13.0511" r="3.72881" fill="#E0EBE2"/>
<g filter="url(#filter0_dd_19779_26986)">
<path d="M71.3479 33.6179L75.5764 31.8468L71.3484 33.6479V84.0752L110.31 67.7483V17.2985L110.5 17.2189L110.31 17.1347V17.05L110.213 17.0915L71.6553 0L32.1953 16.809L32.3821 16.8892L32.1953 67.1341L71.3479 84.0452L71.3479 33.6179Z" fill="#F9FAFB"/>
<path d="M71.3479 33.618V84.0452L32.1953 67.1341L32.3821 16.8892L71.3479 33.618Z" fill="url(#paint0_linear_19779_26986)"/>
<path d="M71.3477 33.6477V84.075L110.31 67.7481V17.0498L71.3477 33.6477Z" fill="url(#paint1_linear_19779_26986)"/>
<path d="M71.3479 33.6179L110.5 17.2189L71.6553 0L32.1953 16.809L71.3479 33.6179Z" fill="#E0EBE2"/>
<path d="M46.9531 10.5218L85.9563 27.4985L86.3107 39.8699L97.2233 35.3671L96.8933 22.9176L56.7362 6.35449L46.9531 10.5218Z" fill="#C2D8C7"/>
</g>
<defs>
<filter id="filter0_dd_19779_26986" x="12.1953" y="0" width="118.305" height="124.075" filterUnits="userSpaceOnUse" color-interpolation-filters="sRGB">
<feFlood flood-opacity="0" result="BackgroundImageFix"/>
<feColorMatrix in="SourceAlpha" type="matrix" values="0 0 0 0 0 0 0 0 0 0 0 0 0 0 0 0 0 0 127 0" result="hardAlpha"/>
<feMorphology radius="4" operator="erode" in="SourceAlpha" result="effect1_dropShadow_19779_26986"/>
<feOffset dy="8"/>
<feGaussianBlur stdDeviation="4"/>
<feColorMatrix type="matrix" values="0 0 0 0 0.0627451 0 0 0 0 0.0941176 0 0 0 0 0.156863 0 0 0 0.03 0"/>
<feBlend mode="normal" in2="BackgroundImageFix" result="effect1_dropShadow_19779_26986"/>
<feColorMatrix in="SourceAlpha" type="matrix" values="0 0 0 0 0 0 0 0 0 0 0 0 0 0 0 0 0 0 127 0" result="hardAlpha"/>
<feMorphology radius="4" operator="erode" in="SourceAlpha" result="effect2_dropShadow_19779_26986"/>
<feOffset dy="20"/>
<feGaussianBlur stdDeviation="12"/>
<feColorMatrix type="matrix" values="0 0 0 0 0.0627451 0 0 0 0 0.0941176 0 0 0 0 0.156863 0 0 0 0.08 0"/>
<feBlend mode="normal" in2="effect1_dropShadow_19779_26986" result="effect2_dropShadow_19779_26986"/>
<feBlend mode="normal" in="SourceGraphic" in2="effect2_dropShadow_19779_26986" result="shape"/>
</filter>
<linearGradient id="paint0_linear_19779_26986" x1="32.1953" y1="67.3875" x2="47.6578" y2="25.5111" gradientUnits="userSpaceOnUse">
<stop stop-color="#C2D8C7"/>
<stop offset="1" stop-color="#DDE9DF"/>
</linearGradient>
<linearGradient id="paint1_linear_19779_26986" x1="71.3471" y1="34.6347" x2="115.495" y2="43.4242" gradientUnits="userSpaceOnUse">
<stop stop-color="#C2D8C7"/>
<stop offset="1" stop-color="#F0FFF4"/>
</linearGradient>
</defs>
</svg>
