<svg width="38" height="38" viewBox="0 0 38 38" fill="none" xmlns="http://www.w3.org/2000/svg">
<path d="M22 16V13.3755C22 12.7517 22 12.4398 21.8686 12.2481C21.7538 12.0806 21.576 11.9669 21.3758 11.9328C21.1467 11.8938 20.8635 12.0245 20.2971 12.2859L13.6443 15.3565C13.1391 15.5896 12.8866 15.7062 12.7016 15.887C12.538 16.0468 12.4132 16.2419 12.3366 16.4574C12.25 16.7011 12.25 16.9793 12.25 17.5356V21.25M22.375 20.875H22.3825M12.25 18.4L12.25 23.35C12.25 24.1901 12.25 24.6101 12.4135 24.931C12.5573 25.2132 12.7868 25.4427 13.069 25.5865C13.3899 25.75 13.8099 25.75 14.65 25.75H23.35C24.1901 25.75 24.6101 25.75 24.931 25.5865C25.2132 25.4427 25.4427 25.2132 25.5865 24.931C25.75 24.6101 25.75 24.1901 25.75 23.35V18.4C25.75 17.5599 25.75 17.1399 25.5865 16.819C25.4427 16.5368 25.2132 16.3073 24.931 16.1635C24.6101 16 24.1901 16 23.35 16L14.65 16C13.8099 16 13.3899 16 13.069 16.1635C12.7868 16.3073 12.5573 16.5368 12.4135 16.819C12.25 17.1399 12.25 17.5599 12.25 18.4ZM22.75 20.875C22.75 21.0821 22.5821 21.25 22.375 21.25C22.1679 21.25 22 21.0821 22 20.875C22 20.6679 22.1679 20.5 22.375 20.5C22.5821 20.5 22.75 20.6679 22.75 20.875Z" stroke="#1D2939" stroke-width="1.5" stroke-linecap="round" stroke-linejoin="round"/>
</svg>
