<svg width="16" height="16" viewBox="0 0 16 16" fill="none" xmlns="http://www.w3.org/2000/svg">
<g clip-path="url(#clip0_21224_13708)">
<path d="M14.6654 11.3332V9.33317M14.6654 9.33317H1.33203M14.6654 9.33317H7.9987V5.99984H12.6654C13.1958 5.99984 13.7045 6.21055 14.0796 6.58562C14.4547 6.9607 14.6654 7.4694 14.6654 7.99984V9.33317ZM1.33203 5.33317V11.3332M3.33203 5.99984C3.33203 6.35346 3.47251 6.6926 3.72256 6.94265C3.9726 7.19269 4.31174 7.33317 4.66536 7.33317C5.01899 7.33317 5.35812 7.19269 5.60817 6.94265C5.85822 6.6926 5.9987 6.35346 5.9987 5.99984C5.9987 5.64622 5.85822 5.30708 5.60817 5.05703C5.35812 4.80698 5.01899 4.6665 4.66536 4.6665C4.31174 4.6665 3.9726 4.80698 3.72256 5.05703C3.47251 5.30708 3.33203 5.64622 3.33203 5.99984Z" stroke="#475467" stroke-width="1.33333" stroke-linecap="round" stroke-linejoin="round"/>
</g>
<defs>
<clipPath id="clip0_21224_13708">
<rect width="16" height="16" fill="white"/>
</clipPath>
</defs>
</svg>
