<svg width="20" height="20" viewBox="0 0 20 20" fill="none" xmlns="http://www.w3.org/2000/svg">
<g clip-path="url(#clip0_20271_8866)">
<path d="M7.22266 18.3337V12.7781C7.22266 12.287 7.41776 11.816 7.76505 11.4687C8.11234 11.1214 8.58337 10.9263 9.07451 10.9263H10.9264C11.4175 10.9263 11.8885 11.1214 12.2358 11.4687C12.5831 11.816 12.7782 12.287 12.7782 12.7781" stroke="white" stroke-width="1.66667" stroke-linecap="round" stroke-linejoin="round"/>
<path d="M16.4828 11.3776V9.99984H18.3346L10.0013 1.6665L1.66797 9.99984H3.51982V16.4813C3.51982 16.9725 3.71493 17.4435 4.06222 17.7908C4.4095 18.1381 4.88053 18.3332 5.37167 18.3332H9.56149" stroke="white" stroke-width="1.66667" stroke-linecap="round" stroke-linejoin="round"/>
<path d="M12.7773 16.4817L14.6292 18.3336L18.3329 14.6299" stroke="white" stroke-width="1.66667" stroke-linecap="round" stroke-linejoin="round"/>
</g>
<defs>
<clipPath id="clip0_20271_8866">
<rect width="20" height="20" fill="white"/>
</clipPath>
</defs>
</svg>
