<svg width="21" height="20" viewBox="0 0 21 20" fill="none" xmlns="http://www.w3.org/2000/svg">
<g clip-path="url(#clip0_19437_51074)">
<path d="M20.0542 10.2302C20.0542 9.55044 19.9991 8.86699 19.8815 8.19824H10.4492V12.0491H15.8507C15.6265 13.291 14.9063 14.3897 13.8518 15.0878V17.5864H17.0743C18.9666 15.8448 20.0542 13.2726 20.0542 10.2302Z" fill="#4285F4"/>
<path d="M10.448 20.0008C13.145 20.0008 15.4195 19.1152 17.0767 17.5867L13.8542 15.088C12.9576 15.698 11.8002 16.0434 10.4516 16.0434C7.84279 16.0434 5.63077 14.2833 4.83709 11.917H1.51172V14.4928C3.20931 17.8696 6.66697 20.0008 10.448 20.0008Z" fill="#34A853"/>
<path d="M4.83467 11.9172C4.41578 10.6753 4.41578 9.33044 4.83467 8.08848V5.5127H1.51297C0.0946349 8.33834 0.0946349 11.6674 1.51297 14.493L4.83467 11.9172Z" fill="#FBBC04"/>
<path d="M10.448 3.95805C11.8737 3.936 13.2516 4.47247 14.2841 5.45722L17.1391 2.60218C15.3313 0.904587 12.9319 -0.0287217 10.448 0.000673888C6.66696 0.000673888 3.20931 2.13185 1.51172 5.51234L4.83342 8.08813C5.62342 5.71811 7.83911 3.95805 10.448 3.95805Z" fill="#EA4335"/>
</g>
<defs>
<clipPath id="clip0_19437_51074">
<rect width="20" height="20" fill="white" transform="translate(0.25)"/>
</clipPath>
</defs>
</svg>
