<svg width="14" height="14" viewBox="0 0 14 14" fill="none" xmlns="http://www.w3.org/2000/svg">
<path d="M5.2513 12.25V7.93333C5.2513 7.60664 5.2513 7.44329 5.31488 7.31851C5.37081 7.20875 5.46005 7.11951 5.56981 7.06358C5.69459 7 5.85794 7 6.18464 7H7.81797C8.14467 7 8.30802 7 8.4328 7.06358C8.54256 7.11951 8.6318 7.20875 8.68773 7.31851C8.7513 7.44329 8.7513 7.60664 8.7513 7.93333V12.25M1.16797 5.54167L6.4413 1.58667C6.64212 1.43605 6.74253 1.36075 6.85281 1.33172C6.95015 1.30609 7.05246 1.30609 7.1498 1.33172C7.26008 1.36075 7.36049 1.43605 7.5613 1.58667L12.8346 5.54167M2.33464 4.66667V10.3833C2.33464 11.0367 2.33464 11.3634 2.4618 11.613C2.57365 11.8325 2.75213 12.011 2.97165 12.1228C3.22121 12.25 3.54791 12.25 4.2013 12.25H9.80131C10.4547 12.25 10.7814 12.25 11.031 12.1228C11.2505 12.011 11.429 11.8325 11.5408 11.613C11.668 11.3634 11.668 11.0367 11.668 10.3833V4.66667L8.1213 2.00667C7.71967 1.70544 7.51885 1.55483 7.2983 1.49677C7.10362 1.44552 6.89899 1.44552 6.70431 1.49677C6.48376 1.55483 6.28294 1.70544 5.8813 2.00667L2.33464 4.66667Z" stroke="#101828" stroke-width="1.16667" stroke-linecap="round" stroke-linejoin="round"/>
</svg>
