<svg width="20" height="20" viewBox="0 0 20 20" fill="none" xmlns="http://www.w3.org/2000/svg">
<g clip-path="url(#clip0_20271_4458)">
<path d="M7.5013 17.5V11.3333C7.5013 10.8666 7.5013 10.6333 7.59213 10.455C7.67203 10.2982 7.79951 10.1707 7.95631 10.0908C8.13457 10 8.36793 10 8.83464 10H11.168C11.6347 10 11.868 10 12.0463 10.0908C12.2031 10.1707 12.3306 10.2982 12.4105 10.455C12.5013 10.6333 12.5013 10.8666 12.5013 11.3333V17.5M1.66797 7.91667L9.2013 2.26667C9.48819 2.0515 9.63163 1.94392 9.78917 1.90245C9.92822 1.86585 10.0744 1.86585 10.2134 1.90245C10.371 1.94392 10.5144 2.05151 10.8013 2.26667L18.3346 7.91667M3.33464 6.66667V14.8333C3.33464 15.7668 3.33464 16.2335 3.51629 16.59C3.67608 16.9036 3.93105 17.1586 4.24465 17.3183C4.60117 17.5 5.06788 17.5 6.0013 17.5H14.0013C14.9347 17.5 15.4014 17.5 15.758 17.3183C16.0716 17.1586 16.3265 16.9036 16.4863 16.59C16.668 16.2335 16.668 15.7668 16.668 14.8333V6.66667L11.6013 2.86667C11.0275 2.43634 10.7407 2.22118 10.4256 2.13824C10.1475 2.06503 9.85514 2.06503 9.57703 2.13824C9.26195 2.22118 8.97507 2.43634 8.4013 2.86667L3.33464 6.66667Z" stroke="white" stroke-width="1.66667" stroke-linecap="round" stroke-linejoin="round"/>
</g>
<defs>
<clipPath id="clip0_20271_4458">
<rect width="20" height="20" fill="white"/>
</clipPath>
</defs>
</svg>
