<svg width="32" height="24" viewBox="0 0 32 24" fill="none" xmlns="http://www.w3.org/2000/svg">
<g clip-path="url(#clip0_15313_7383)">
<rect width="32" height="24" rx="4" fill="white"/>
<path fill-rule="evenodd" clip-rule="evenodd" d="M0 0V24H32V0H0Z" fill="#F7FCFF"/>
<mask id="mask0_15313_7383" style="mask-type:luminance" maskUnits="userSpaceOnUse" x="0" y="0" width="32" height="24">
<path fill-rule="evenodd" clip-rule="evenodd" d="M0 0V24H32V0H0Z" fill="white"/>
</mask>
<g mask="url(#mask0_15313_7383)">
<path fill-rule="evenodd" clip-rule="evenodd" d="M15.7867 18.5713C19.203 18.5713 21.9724 15.7353 21.9724 12.2368C21.9724 8.73839 19.203 5.90234 15.7867 5.90234C12.3705 5.90234 9.60107 8.73839 9.60107 12.2368C9.60107 15.7353 12.3705 18.5713 15.7867 18.5713Z" fill="#3D58DB"/>
<mask id="mask1_15313_7383" style="mask-type:luminance" maskUnits="userSpaceOnUse" x="9" y="5" width="13" height="14">
<path fill-rule="evenodd" clip-rule="evenodd" d="M15.7867 18.5713C19.203 18.5713 21.9724 15.7353 21.9724 12.2368C21.9724 8.73839 19.203 5.90234 15.7867 5.90234C12.3705 5.90234 9.60107 8.73839 9.60107 12.2368C9.60107 15.7353 12.3705 18.5713 15.7867 18.5713Z" fill="white"/>
</mask>
<g mask="url(#mask1_15313_7383)">
<path fill-rule="evenodd" clip-rule="evenodd" d="M22.1889 12.7225C22.1889 12.7225 21.8417 9.73561 19.2703 9.57346C16.6989 9.41131 16.0056 11.7639 15.8572 12.3872C15.7088 13.0105 15.3332 14.6732 12.6259 14.6732C9.91853 14.6732 9.67432 10.4453 9.67432 10.4453V5.45996H22.1889V12.7225Z" fill="#E31D1C"/>
</g>
<path fill-rule="evenodd" clip-rule="evenodd" d="M7.29934 2.05176L8.2143 2.87928L3.97404 7.83119L3.05908 7.00366L7.29934 2.05176ZM8.80848 3.39063L9.72344 4.21815L5.63518 9.09832L4.72022 8.27079L8.80848 3.39063ZM11.2255 5.57362L10.3106 4.74609L6.21094 9.6633L7.1259 10.4908L11.2255 5.57362Z" fill="#272727"/>
<path d="M8.2143 2.87928L8.32824 2.97685L8.42319 2.86596L8.31492 2.76804L8.2143 2.87928ZM7.29934 2.05176L7.39996 1.94051L7.28565 1.83713L7.1854 1.9542L7.29934 2.05176ZM3.97404 7.83119L3.87343 7.94244L3.98774 8.04582L4.08798 7.92875L3.97404 7.83119ZM3.05908 7.00366L2.94515 6.9061L2.85019 7.01699L2.95846 7.11491L3.05908 7.00366ZM9.72344 4.21815L9.83842 4.31448L9.93116 4.20377L9.82406 4.1069L9.72344 4.21815ZM8.80848 3.39063L8.90909 3.27938L8.79354 3.17487L8.69349 3.2943L8.80848 3.39063ZM5.63518 9.09832L5.53456 9.20957L5.65011 9.31407L5.75016 9.19464L5.63518 9.09832ZM4.72022 8.27079L4.60523 8.17447L4.51249 8.28517L4.6196 8.38204L4.72022 8.27079ZM10.3106 4.74609L10.4112 4.63485L10.2954 4.53009L10.1954 4.65004L10.3106 4.74609ZM11.2255 5.57362L11.3407 5.66968L11.433 5.55902L11.3261 5.46237L11.2255 5.57362ZM6.21094 9.6633L6.09573 9.56724L6.00347 9.6779L6.11032 9.77454L6.21094 9.6633ZM7.1259 10.4908L7.02528 10.6021L7.14111 10.7068L7.24111 10.5869L7.1259 10.4908ZM8.31492 2.76804L7.39996 1.94051L7.19872 2.16301L8.11368 2.99053L8.31492 2.76804ZM4.08798 7.92875L8.32824 2.97685L8.10036 2.78172L3.86011 7.73363L4.08798 7.92875ZM2.95846 7.11491L3.87343 7.94244L4.07466 7.71994L3.1597 6.89241L2.95846 7.11491ZM7.1854 1.9542L2.94515 6.9061L3.17302 7.10123L7.41327 2.14932L7.1854 1.9542ZM9.82406 4.1069L8.90909 3.27938L8.70786 3.50187L9.62282 4.3294L9.82406 4.1069ZM5.75016 9.19464L9.83842 4.31448L9.60845 4.12183L5.52019 9.00199L5.75016 9.19464ZM4.6196 8.38204L5.53456 9.20957L5.73579 8.98707L4.82083 8.15954L4.6196 8.38204ZM8.69349 3.2943L4.60523 8.17447L4.8352 8.36712L8.92346 3.48695L8.69349 3.2943ZM10.2099 4.85734L11.1249 5.68487L11.3261 5.46237L10.4112 4.63485L10.2099 4.85734ZM6.32615 9.75935L10.4258 4.84215L10.1954 4.65004L6.09573 9.56724L6.32615 9.75935ZM7.22652 10.3796L6.31156 9.55205L6.11032 9.77454L7.02528 10.6021L7.22652 10.3796ZM11.1103 5.47757L7.01069 10.3948L7.24111 10.5869L11.3407 5.66968L11.1103 5.47757Z" fill="#272727"/>
<path fill-rule="evenodd" clip-rule="evenodd" d="M24.5849 2.05176L23.67 2.87928L27.9102 7.83119L28.8252 7.00366L24.5849 2.05176ZM23.0758 3.39063L22.1608 4.21815L26.2491 9.09832L27.1641 8.27079L23.0758 3.39063ZM20.6588 5.57362L21.5737 4.74609L25.6733 9.6633L24.7584 10.4908L20.6588 5.57362Z" fill="#272727"/>
<path d="M23.67 2.87928L23.556 2.97685L23.4611 2.86596L23.5694 2.76804L23.67 2.87928ZM24.5849 2.05176L24.4843 1.94051L24.5986 1.83713L24.6989 1.9542L24.5849 2.05176ZM27.9102 7.83119L28.0109 7.94244L27.8965 8.04582L27.7963 7.92875L27.9102 7.83119ZM28.8252 7.00366L28.9391 6.9061L29.0341 7.01699L28.9258 7.11491L28.8252 7.00366ZM22.1608 4.21815L22.0459 4.31448L21.9531 4.20377L22.0602 4.1069L22.1608 4.21815ZM23.0758 3.39063L22.9752 3.27938L23.0907 3.17487L23.1908 3.2943L23.0758 3.39063ZM26.2491 9.09832L26.3497 9.20957L26.2342 9.31407L26.1341 9.19464L26.2491 9.09832ZM27.1641 8.27079L27.279 8.17447L27.3718 8.28517L27.2647 8.38204L27.1641 8.27079ZM21.5737 4.74609L21.4731 4.63485L21.5889 4.53009L21.6889 4.65004L21.5737 4.74609ZM20.6588 5.57362L20.5435 5.66968L20.4513 5.55902L20.5581 5.46237L20.6588 5.57362ZM25.6733 9.6633L25.7886 9.56724L25.8808 9.6779L25.774 9.77454L25.6733 9.6633ZM24.7584 10.4908L24.859 10.6021L24.7432 10.7068L24.6432 10.5869L24.7584 10.4908ZM23.5694 2.76804L24.4843 1.94051L24.6856 2.16301L23.7706 2.99053L23.5694 2.76804ZM27.7963 7.92875L23.556 2.97685L23.7839 2.78172L28.0242 7.73363L27.7963 7.92875ZM28.9258 7.11491L28.0109 7.94244L27.8096 7.71994L28.7246 6.89241L28.9258 7.11491ZM24.6989 1.9542L28.9391 6.9061L28.7113 7.10123L24.471 2.14932L24.6989 1.9542ZM22.0602 4.1069L22.9752 3.27938L23.1764 3.50187L22.2615 4.3294L22.0602 4.1069ZM26.1341 9.19464L22.0459 4.31448L22.2758 4.12183L26.3641 9.00199L26.1341 9.19464ZM27.2647 8.38204L26.3497 9.20957L26.1485 8.98707L27.0634 8.15954L27.2647 8.38204ZM23.1908 3.2943L27.279 8.17447L27.0491 8.36712L22.9608 3.48695L23.1908 3.2943ZM21.6743 4.85734L20.7594 5.68487L20.5581 5.46237L21.4731 4.63485L21.6743 4.85734ZM25.5581 9.75935L21.4585 4.84215L21.6889 4.65004L25.7886 9.56724L25.5581 9.75935ZM24.6578 10.3796L25.5727 9.55205L25.774 9.77454L24.859 10.6021L24.6578 10.3796ZM20.774 5.47757L24.8736 10.3948L24.6432 10.5869L20.5435 5.66968L20.774 5.47757Z" fill="#272727"/>
<path fill-rule="evenodd" clip-rule="evenodd" d="M7.29934 22.4912L8.2143 21.6637L3.97404 16.7118L3.05908 17.5393L7.29934 22.4912ZM8.80848 21.1523L9.72344 20.3248L5.63518 15.4447L4.72022 16.2722L8.80848 21.1523ZM11.2255 18.9694L10.3106 19.7969L6.21094 14.8797L7.1259 14.0521L11.2255 18.9694Z" fill="#272727"/>
<path d="M8.2143 21.6637L8.32824 21.5661L8.42319 21.677L8.31492 21.7749L8.2143 21.6637ZM7.29934 22.4912L7.39996 22.6025L7.28565 22.7058L7.1854 22.5888L7.29934 22.4912ZM3.97404 16.7118L3.87343 16.6005L3.98774 16.4971L4.08798 16.6142L3.97404 16.7118ZM3.05908 17.5393L2.94515 17.6369L2.85019 17.526L2.95846 17.4281L3.05908 17.5393ZM9.72344 20.3248L9.83842 20.2285L9.93116 20.3392L9.82406 20.4361L9.72344 20.3248ZM8.80848 21.1523L8.90909 21.2636L8.79354 21.3681L8.69349 21.2487L8.80848 21.1523ZM5.63518 15.4447L5.53456 15.3334L5.65011 15.2289L5.75016 15.3483L5.63518 15.4447ZM4.72022 16.2722L4.60523 16.3685L4.51249 16.2578L4.6196 16.1609L4.72022 16.2722ZM10.3106 19.7969L10.4112 19.9081L10.2954 20.0129L10.1954 19.8929L10.3106 19.7969ZM11.2255 18.9694L11.3407 18.8733L11.433 18.984L11.3261 19.0806L11.2255 18.9694ZM6.21094 14.8797L6.09573 14.9757L6.00347 14.8651L6.11032 14.7684L6.21094 14.8797ZM7.1259 14.0521L7.02528 13.9409L7.14111 13.8361L7.24111 13.9561L7.1259 14.0521ZM8.31492 21.7749L7.39996 22.6025L7.19872 22.38L8.11368 21.5524L8.31492 21.7749ZM4.08798 16.6142L8.32824 21.5661L8.10036 21.7612L3.86011 16.8093L4.08798 16.6142ZM2.95846 17.4281L3.87343 16.6005L4.07466 16.823L3.1597 17.6506L2.95846 17.4281ZM7.1854 22.5888L2.94515 17.6369L3.17302 17.4417L7.41327 22.3936L7.1854 22.5888ZM9.82406 20.4361L8.90909 21.2636L8.70786 21.0411L9.62282 20.2136L9.82406 20.4361ZM5.75016 15.3483L9.83842 20.2285L9.60845 20.4211L5.52019 15.541L5.75016 15.3483ZM4.6196 16.1609L5.53456 15.3334L5.73579 15.5559L4.82083 16.3834L4.6196 16.1609ZM8.69349 21.2487L4.60523 16.3685L4.8352 16.1759L8.92346 21.056L8.69349 21.2487ZM10.2099 19.6856L11.1249 18.8581L11.3261 19.0806L10.4112 19.9081L10.2099 19.6856ZM6.32615 14.7836L10.4258 19.7008L10.1954 19.8929L6.09573 14.9757L6.32615 14.7836ZM7.22652 14.1634L6.31156 14.9909L6.11032 14.7684L7.02528 13.9409L7.22652 14.1634ZM11.1103 19.0654L7.01069 14.1482L7.24111 13.9561L11.3407 18.8733L11.1103 19.0654Z" fill="#272727"/>
<path fill-rule="evenodd" clip-rule="evenodd" d="M24.5849 22.4912L23.67 21.6637L27.9102 16.7118L28.8252 17.5393L24.5849 22.4912ZM23.0758 21.1523L22.1608 20.3248L26.2491 15.4447L27.1641 16.2722L23.0758 21.1523ZM20.6588 18.9694L21.5737 19.7969L25.6733 14.8797L24.7584 14.0521L20.6588 18.9694Z" fill="#272727"/>
<path d="M23.67 21.6637L23.556 21.5661L23.4611 21.677L23.5694 21.7749L23.67 21.6637ZM24.5849 22.4912L24.4843 22.6025L24.5986 22.7058L24.6989 22.5888L24.5849 22.4912ZM27.9102 16.7118L28.0109 16.6005L27.8965 16.4971L27.7963 16.6142L27.9102 16.7118ZM28.8252 17.5393L28.9391 17.6369L29.0341 17.526L28.9258 17.4281L28.8252 17.5393ZM22.1608 20.3248L22.0459 20.2285L21.9531 20.3392L22.0602 20.4361L22.1608 20.3248ZM23.0758 21.1523L22.9752 21.2636L23.0907 21.3681L23.1908 21.2487L23.0758 21.1523ZM26.2491 15.4447L26.3497 15.3334L26.2342 15.2289L26.1341 15.3483L26.2491 15.4447ZM27.1641 16.2722L27.279 16.3685L27.3718 16.2578L27.2647 16.1609L27.1641 16.2722ZM21.5737 19.7969L21.4731 19.9081L21.5889 20.0129L21.6889 19.8929L21.5737 19.7969ZM20.6588 18.9694L20.5435 18.8733L20.4513 18.984L20.5581 19.0806L20.6588 18.9694ZM25.6733 14.8797L25.7886 14.9757L25.8808 14.8651L25.774 14.7684L25.6733 14.8797ZM24.7584 14.0521L24.859 13.9409L24.7432 13.8361L24.6432 13.9561L24.7584 14.0521ZM23.5694 21.7749L24.4843 22.6025L24.6856 22.38L23.7706 21.5524L23.5694 21.7749ZM27.7963 16.6142L23.556 21.5661L23.7839 21.7612L28.0242 16.8093L27.7963 16.6142ZM28.9258 17.4281L28.0109 16.6005L27.8096 16.823L28.7246 17.6506L28.9258 17.4281ZM24.6989 22.5888L28.9391 17.6369L28.7113 17.4417L24.471 22.3936L24.6989 22.5888ZM22.0602 20.4361L22.9752 21.2636L23.1764 21.0411L22.2615 20.2136L22.0602 20.4361ZM26.1341 15.3483L22.0459 20.2285L22.2758 20.4211L26.3641 15.541L26.1341 15.3483ZM27.2647 16.1609L26.3497 15.3334L26.1485 15.5559L27.0634 16.3834L27.2647 16.1609ZM23.1908 21.2487L27.279 16.3685L27.0491 16.1759L22.9608 21.056L23.1908 21.2487ZM21.6743 19.6856L20.7594 18.8581L20.5581 19.0806L21.4731 19.9081L21.6743 19.6856ZM25.5581 14.7836L21.4585 19.7008L21.6889 19.8929L25.7886 14.9757L25.5581 14.7836ZM24.6578 14.1634L25.5727 14.9909L25.774 14.7684L24.859 13.9409L24.6578 14.1634ZM20.774 19.0654L24.8736 14.1482L24.6432 13.9561L20.5435 18.8733L20.774 19.0654Z" fill="#272727"/>
</g>
</g>
<defs>
<clipPath id="clip0_15313_7383">
<rect width="32" height="24" rx="4" fill="white"/>
</clipPath>
</defs>
</svg>
