<svg width="20" height="20" viewBox="0 0 20 20" fill="none" xmlns="http://www.w3.org/2000/svg">
<g clip-path="url(#clip0_20271_10663)">
<path d="M16.6654 10.4166V5.66663C16.6654 4.26649 16.6654 3.56643 16.3929 3.03165C16.1532 2.56124 15.7707 2.17879 15.3003 1.93911C14.7656 1.66663 14.0655 1.66663 12.6654 1.66663H7.33203C5.9319 1.66663 5.23183 1.66663 4.69705 1.93911C4.22665 2.17879 3.8442 2.56124 3.60451 3.03165C3.33203 3.56643 3.33203 4.26649 3.33203 5.66663V14.3333C3.33203 15.7334 3.33203 16.4335 3.60451 16.9683C3.8442 17.4387 4.22665 17.8211 4.69705 18.0608C5.23183 18.3333 5.9319 18.3333 7.33203 18.3333H9.9987M11.6654 9.16662H6.66536M8.33203 12.5H6.66536M13.332 5.83329H6.66536M12.082 15.8333L13.7487 17.5L17.4987 13.75" stroke="white" stroke-width="1.66667" stroke-linecap="round" stroke-linejoin="round"/>
</g>
<defs>
<clipPath id="clip0_20271_10663">
<rect width="20" height="20" fill="white"/>
</clipPath>
</defs>
</svg>
