<svg width="14" height="14" viewBox="0 0 14 14" fill="none" xmlns="http://www.w3.org/2000/svg">
<path d="M6.57992 2.01417C6.71437 1.74179 6.78159 1.6056 6.87286 1.56209C6.95226 1.52423 7.04451 1.52423 7.12391 1.56209C7.21517 1.6056 7.2824 1.74179 7.41685 2.01417L8.69241 4.59832C8.7321 4.67873 8.75195 4.71894 8.78095 4.75015C8.80663 4.77779 8.83743 4.80019 8.87164 4.8161C8.91028 4.83407 8.95465 4.84055 9.04338 4.85352L11.8966 5.27056C12.1971 5.31448 12.3473 5.33644 12.4168 5.40982C12.4773 5.47367 12.5058 5.56141 12.4943 5.6486C12.481 5.74882 12.3723 5.85476 12.1547 6.06662L10.0909 8.07681C10.0265 8.13948 9.99438 8.17081 9.97362 8.20809C9.95524 8.2411 9.94345 8.27736 9.93891 8.31486C9.93377 8.35722 9.94136 8.40148 9.95654 8.49L10.4435 11.3293C10.4949 11.6288 10.5206 11.7785 10.4723 11.8674C10.4303 11.9447 10.3557 11.9989 10.2692 12.0149C10.1697 12.0334 10.0353 11.9626 9.76635 11.8212L7.21559 10.4798C7.13612 10.438 7.09638 10.4171 7.05451 10.4089C7.01745 10.4016 6.97932 10.4016 6.94225 10.4089C6.90039 10.4171 6.86065 10.438 6.78117 10.4798L4.23041 11.8212C3.96149 11.9626 3.82703 12.0334 3.72761 12.0149C3.6411 11.9989 3.56646 11.9447 3.52447 11.8674C3.47621 11.7785 3.50189 11.6288 3.55325 11.3293L4.04022 8.49C4.0554 8.40148 4.063 8.35722 4.05786 8.31486C4.05331 8.27736 4.04152 8.2411 4.02314 8.20809C4.00239 8.17081 3.97022 8.13948 3.90588 8.07681L1.84203 6.06662C1.62451 5.85476 1.51575 5.74882 1.50251 5.6486C1.491 5.56141 1.51945 5.47367 1.57994 5.40982C1.64946 5.33644 1.79969 5.31448 2.10015 5.27056L4.95339 4.85352C5.04212 4.84055 5.08649 4.83407 5.12512 4.8161C5.15933 4.80019 5.19013 4.77779 5.21581 4.75015C5.24482 4.71894 5.26466 4.67873 5.30436 4.59832L6.57992 2.01417Z" stroke="#101828" stroke-width="1.16667" stroke-linecap="round" stroke-linejoin="round"/>
</svg>
