<svg width="331" height="234" viewBox="0 0 331 234" fill="none" xmlns="http://www.w3.org/2000/svg">
<g opacity="0.8" clip-path="url(#clip0_18611_6649)">
<path opacity="0.08" d="M272.169 86.9037C273.008 91.1812 272.169 98.0533 272.169 98.0533C271.101 106.683 266.002 126.234 254.144 135.396C239.322 146.849 217.23 164.606 149.373 177.626C95.0883 188.042 72.1514 165.558 67.4686 153.014C56.5933 130.73 61.4491 112.126 68.98 102.485C75.9251 93.5941 84.4447 91.5608 91.8718 91.4751C99.2988 91.3894 112.178 93.4785 122.795 94.3362C131.288 95.0223 187.578 77.4691 214.661 68.6067C214.661 68.6067 221.439 66.1608 230.149 62.403C235.147 60.2466 240.576 60.1899 245.922 61.3168C253.432 62.9 257.661 65.4168 263.027 70.7512C268.208 75.9029 270.782 79.8354 272.169 86.9037Z" fill="#326144" stroke="#326144" stroke-width="1.4096" stroke-linecap="round" stroke-linejoin="round"/>
<path d="M200.556 115.416C204.3 98.208 203.94 67.212 203.544 60.048C203.148 52.848 203.148 47.484 200.952 46.944C198.756 46.404 198.864 49.788 198.864 49.788C198.864 49.788 198.684 42.984 195.984 42.912C193.68 42.84 193.896 46.98 194.04 48.24C193.896 47.088 193.248 43.524 191.124 43.524C188.604 43.524 189.684 54.36 189.684 54.36C189.684 54.36 185.22 53.496 183.96 56.628C182.7 59.76 189.252 60.408 189.252 60.408C190.224 68.796 190.008 77.292 188.532 85.608C183.276 78.444 177.012 74.088 170.784 75.312C170.784 75.312 160.38 73.404 152.604 91.98C148.32 84.636 145.116 76.716 143.1 68.472C143.1 68.472 149.004 65.592 146.736 63.072C144.468 60.552 140.58 62.964 140.58 62.964C140.58 62.964 137.808 52.416 135.432 53.316C133.416 54.036 134.064 57.636 134.352 58.752C134.028 57.564 132.804 53.604 130.68 54.432C128.16 55.44 130.32 61.92 130.32 61.92C130.32 61.92 129.276 58.716 127.368 59.976C125.46 61.236 127.368 66.24 129.492 73.152C131.328 79.128 140.4 104.724 146.664 117.756C146.232 126 147.42 133.344 150.3 139.212C128.7 153.252 157.608 182.484 157.608 182.484C157.608 182.484 157.392 187.524 159.156 187.704C160.92 187.884 167.256 172.008 167.868 170.64C168.48 169.272 168.516 168.228 166.968 167.148C159.624 161.964 161.64 155.376 163.8 151.524C168.228 153.108 173.484 153.684 179.676 153C179.856 160.488 178.848 170.676 173.412 177.948C172.26 179.496 170.856 180.972 172.26 181.404C173.664 181.836 192.276 191.952 192.744 190.98C193.212 190.008 190.62 184.428 190.62 184.428C190.62 184.428 204.66 162.324 197.784 142.812C201.816 135.756 202.32 125.676 200.556 115.416Z" fill="#326144"/>
<path d="M201.456 115.416C202.644 109.908 203.256 104.292 203.688 98.712C204.192 92.7 204.444 86.688 204.552 80.64C204.66 75.672 204.66 70.704 204.588 65.736C204.516 61.2 204.372 56.628 203.904 52.092C203.724 50.256 203.544 46.908 201.276 46.44C199.008 45.972 197.892 48.06 197.964 50.004L199.728 49.644C199.692 47.844 199.404 45.9 198.648 44.244C198.18 43.236 197.388 42.408 196.2 42.372C194.904 42.3 193.716 43.164 193.392 44.424C192.96 45.684 193.032 47.124 193.14 48.42L194.904 48.06C194.724 46.62 194.328 44.892 193.284 43.812C192.312 42.804 190.512 42.588 189.576 43.776C188.856 44.712 188.712 46.08 188.64 47.196C188.532 48.744 188.496 50.292 188.604 51.84C188.64 52.74 188.712 53.676 188.784 54.576L190.008 53.856C187.848 53.46 185.112 53.82 183.672 55.62C182.916 56.556 182.556 57.852 183.384 58.86C184.104 59.724 185.292 60.192 186.336 60.516C187.164 60.768 187.992 60.948 188.856 61.02L188.316 60.624C189.288 68.976 189.036 77.4 187.596 85.68L189.324 85.356C186.408 81.396 182.808 77.58 178.2 75.672C176.256 74.844 174.132 74.484 172.044 74.628C171.792 74.664 171.576 74.664 171.324 74.7C171.18 74.736 170.496 74.772 171.108 74.808H171.036C170.928 74.772 170.784 74.772 170.676 74.772C166.572 74.448 162.54 76.752 159.696 79.524C156.06 82.98 153.612 87.48 151.704 92.088L153.396 91.764C149.148 84.456 145.944 76.608 143.928 68.4L143.568 68.94C144.468 68.472 145.332 67.932 146.124 67.284C147.096 66.492 148.32 65.268 148.032 63.9C147.672 62.1 145.404 61.344 143.784 61.452C142.452 61.56 141.156 61.956 140.004 62.64L141.444 62.856C140.868 60.66 140.148 58.536 139.248 56.484C138.744 55.368 138.168 54.036 137.196 53.244C136.116 52.344 134.532 52.776 133.74 53.892C132.732 55.296 133.056 57.42 133.416 58.968L135.18 58.608C134.604 56.592 133.452 53.352 130.752 53.856C128.052 54.36 128.376 57.708 128.772 59.76C128.916 60.552 129.132 61.344 129.384 62.1L131.148 61.74C130.932 60.984 130.5 60.3 129.96 59.76C128.988 58.896 127.512 58.896 126.54 59.76C124.776 61.272 125.928 64.584 126.432 66.384C127.764 71.244 129.42 76.032 131.076 80.784C135.18 92.448 139.464 104.148 144.576 115.416C144.9 116.1 145.188 116.784 145.512 117.468C145.908 118.296 145.656 119.448 145.656 120.384C145.62 122.724 145.728 125.1 146.016 127.44C146.484 131.616 147.636 135.684 149.436 139.5L149.724 138.816C146.34 141.012 143.532 144 142.2 147.888C141.084 151.2 141.156 154.836 141.948 158.22C143.496 165.132 147.456 171.432 151.74 176.976C153.108 178.74 154.512 180.432 156.024 182.052C156.096 182.124 156.672 182.844 156.744 182.808C156.708 182.808 156.708 182.268 156.672 182.916C156.672 183.24 156.672 183.564 156.672 183.888C156.672 184.752 156.816 185.616 157.032 186.444C157.248 187.164 157.608 187.92 158.364 188.208C158.976 188.424 159.696 188.28 160.2 187.848C161.1 187.128 161.676 185.976 162.216 185.004C164.052 181.728 165.528 178.236 166.968 174.78C167.472 173.592 167.976 172.368 168.48 171.18L168.588 170.964C168.588 170.928 168.624 170.928 168.624 170.892C168.84 170.424 169.02 169.92 169.092 169.416C169.236 168.012 168.228 167.256 167.22 166.5C165.096 164.916 163.368 162.792 162.864 160.164C162.504 158.148 162.72 156.096 163.476 154.188C163.8 153.36 164.16 152.532 164.628 151.74L163.26 152.136C168.48 154.008 174.096 154.26 179.532 153.648L178.776 153.252C178.92 159.408 178.272 165.744 176.04 171.54C175.464 173.088 174.744 174.564 173.88 175.968C173.484 176.652 173.052 177.264 172.584 177.912C172.008 178.596 171.504 179.316 171.036 180.072C170.532 181.044 170.82 181.656 171.792 182.052C172.152 182.196 172.512 182.376 172.872 182.556C176.148 184.14 179.352 185.868 182.592 187.488C184.356 188.388 186.156 189.252 187.956 190.116C189.108 190.692 190.296 191.196 191.52 191.592C192.06 191.736 192.708 191.844 193.212 191.52C193.932 191.052 193.608 190.08 193.428 189.396C192.888 187.632 192.204 185.904 191.412 184.248V184.68C192.348 183.168 193.176 181.62 193.932 180.036C195.804 176.256 197.316 172.332 198.468 168.264C199.944 163.26 200.628 158.004 200.484 152.784C200.376 150.012 199.944 147.24 199.188 144.54C199.044 144 198.576 143.208 198.756 142.704C199.008 142.056 199.404 141.408 199.692 140.76C200.232 139.5 200.664 138.204 201.024 136.872C202.896 129.888 202.536 122.4 201.348 115.344C201.204 114.624 199.44 114.948 199.584 115.704C200.7 122.292 201.06 129.204 199.548 135.792C199.224 137.232 198.792 138.636 198.288 140.004C198.036 140.652 197.748 141.264 197.46 141.876C197.316 142.164 197.136 142.452 196.992 142.74C196.812 143.136 196.956 143.388 197.1 143.784C198 146.52 198.504 149.364 198.684 152.244C199.296 161.928 196.344 171.72 192.024 180.288C191.484 181.368 190.908 182.448 190.296 183.528C190.044 183.924 189.576 184.428 189.756 184.932C190.26 186.408 191.016 187.776 191.484 189.252C191.592 189.612 191.7 190.008 191.808 190.368C191.844 190.512 191.844 190.656 191.88 190.8C191.844 190.656 191.88 190.98 191.88 190.944C191.952 191.16 191.7 191.016 191.916 190.98C192.024 190.98 192.276 190.656 192.492 190.62C192.492 190.62 192.78 190.548 192.672 190.584C192.816 190.62 192.888 190.512 192.672 190.584C192.6 190.548 192.492 190.548 192.636 190.584C192.528 190.548 192.42 190.512 192.312 190.476C189.432 189.54 186.66 187.992 183.96 186.624C180.864 185.076 177.804 183.456 174.708 181.908C174.276 181.692 173.808 181.476 173.376 181.26C173.196 181.188 172.62 181.008 172.512 180.828C172.332 180.396 173.16 179.532 173.376 179.208C173.88 178.56 174.384 177.912 174.852 177.228C175.68 176.004 176.4 174.708 177.012 173.376C179.388 168.156 180.324 162.396 180.504 156.708C180.54 155.448 180.54 154.188 180.504 152.928C180.504 152.64 179.964 152.496 179.748 152.532C174.564 153.108 169.236 152.892 164.304 151.128C163.908 150.984 163.188 151.092 162.936 151.524C161.028 154.944 160.056 159.012 161.784 162.684C162.288 163.8 163.008 164.808 163.872 165.672C164.34 166.176 164.844 166.644 165.384 167.076C165.96 167.544 166.716 167.94 167.112 168.588C167.724 169.668 166.824 171.072 166.392 172.116C165.096 175.248 163.764 178.38 162.288 181.44C161.604 182.952 160.812 184.428 159.984 185.832C159.732 186.264 159.444 186.696 159.12 187.092C159.048 187.164 158.976 187.236 158.904 187.308C158.76 187.416 158.868 187.38 158.832 187.344C158.904 187.308 158.976 187.272 159.048 187.272C159.444 187.2 159.372 187.416 159.228 187.164C158.436 185.868 158.364 184.356 158.364 182.844C158.4 182.484 158.256 182.16 158.004 181.944C156.78 180.648 155.592 179.28 154.476 177.876C150.3 172.764 146.52 167.04 144.432 160.74C143.388 157.536 142.776 154.08 143.244 150.732C143.784 147.204 145.548 143.964 148.248 141.588C149.04 140.904 149.868 140.256 150.732 139.716C150.984 139.536 151.164 139.32 151.02 139.032C149.472 135.828 148.464 132.372 147.924 128.844C147.636 126.936 147.456 125.028 147.384 123.12C147.348 122.148 147.348 121.14 147.348 120.168C147.348 119.268 147.636 118.08 147.24 117.288C144.756 112.104 142.596 106.776 140.508 101.412C136.872 92.124 133.272 82.764 130.32 73.224C129.672 71.172 129.024 69.12 128.412 67.032C127.908 65.52 127.584 63.972 127.404 62.388C127.332 61.884 127.404 61.344 127.548 60.84C127.584 60.696 127.656 60.588 127.764 60.48C127.872 60.372 128.052 60.336 128.016 60.336C128.664 60.444 129.168 61.596 129.348 62.172C129.6 62.892 131.364 62.532 131.112 61.812C130.536 60.048 129.924 57.888 130.32 56.052C130.392 55.764 130.536 55.116 130.896 55.008C131.256 54.9 131.688 55.404 131.868 55.656C132.588 56.664 133.092 57.816 133.344 59.004C133.56 59.724 135.288 59.4 135.108 58.644C134.82 57.42 134.604 56.016 135 54.792C135.072 54.504 135.216 54.252 135.432 54.036C135.468 53.964 135.54 53.928 135.612 53.892C135.612 53.82 135.324 54.036 135.432 53.928C135.432 53.928 135.504 53.964 135.648 54.108C135.792 54.252 135.936 54.396 136.044 54.54C137.52 56.412 138.276 59.004 138.996 61.272C139.212 61.92 139.392 62.604 139.572 63.252C139.716 63.828 140.616 63.684 140.976 63.468C141.732 63 142.56 62.748 143.388 62.64C144.54 62.532 146.34 63.288 146.196 64.692C146.088 65.7 145.008 66.528 144.252 67.104C143.676 67.536 143.064 67.896 142.416 68.22C142.236 68.292 142.02 68.544 142.056 68.796C144.108 77.112 147.312 85.068 151.632 92.448C151.992 93.06 153.108 92.628 153.324 92.124C155.844 86.148 159.732 79.2 166.104 76.716C166.824 76.428 167.58 76.212 168.372 76.104C168.48 76.104 168.912 76.032 168.66 76.068C168.804 76.068 168.948 76.032 169.092 76.032C169.308 76.032 169.56 75.996 169.776 75.996C169.884 75.996 170.136 76.032 169.848 75.996L170.064 76.032L170.244 76.068C171.036 76.104 171.864 75.888 172.692 75.888C173.664 75.888 174.6 76.068 175.536 76.32C180.576 77.796 184.5 82.008 187.56 86.112C187.92 86.58 189.144 86.4 189.252 85.788C190.692 77.436 190.944 68.868 189.972 60.444C189.936 60.228 189.648 60.084 189.432 60.048C188.676 59.976 187.956 59.832 187.236 59.616C186.3 59.328 184.932 58.896 184.572 57.888C184.14 56.592 185.544 55.44 186.66 55.152C187.488 54.972 188.316 54.936 189.144 55.116C189.576 55.188 190.44 54.972 190.368 54.396C190.188 52.632 190.116 50.832 190.152 49.032C190.152 47.808 190.26 46.548 190.548 45.36C190.656 44.964 190.836 44.604 191.052 44.244C191.052 44.28 191.088 44.208 191.088 44.208C191.088 44.208 190.908 44.28 190.944 44.28C190.872 44.424 190.836 44.208 190.98 44.316C191.124 44.424 191.304 44.46 191.412 44.568C192.528 45.468 192.816 47.304 192.996 48.6C193.104 49.356 194.832 49.032 194.76 48.24C194.652 47.016 194.616 45.72 195.012 44.532C195.12 44.208 195.336 43.668 195.696 43.668C196.056 43.668 196.416 44.208 196.596 44.496C197.604 46.08 197.82 48.312 197.856 50.148C197.892 50.868 199.656 50.58 199.62 49.788C199.62 49.248 199.692 48.672 199.908 48.168C200.16 47.592 200.448 47.52 200.844 47.988C201.42 48.636 201.6 49.608 201.744 50.4C201.96 51.732 202.104 53.1 202.176 54.432C202.464 58.5 202.644 62.604 202.716 66.672C202.896 77.076 202.68 87.516 201.888 97.884C201.42 103.824 200.808 109.8 199.548 115.632C199.512 116.244 201.312 116.1 201.456 115.416Z" fill="#326144"/>
<path d="M177.48 101.484C177.48 101.304 177.516 101.124 177.552 100.944L177.516 101.016C177.66 100.584 177.984 100.26 178.38 100.08L178.308 100.116C178.452 100.08 178.56 100.044 178.704 100.044C178.776 100.044 178.848 100.044 178.92 100.044C178.992 100.044 178.884 100.044 178.956 100.044L179.064 100.08L179.172 100.116H179.208C179.244 100.116 179.244 100.116 179.172 100.08L179.28 100.116C179.388 100.152 179.172 100.044 179.244 100.08C179.316 100.116 179.208 100.044 179.172 100.044C179.316 100.152 178.992 99.864 179.1 99.972C178.992 99.828 178.956 99.828 178.992 99.864L179.028 99.9L178.956 99.792C178.992 99.864 178.992 99.828 178.92 99.72C179.136 100.08 179.46 100.404 179.82 100.584C179.892 100.62 180.072 100.728 180.144 100.62C180.216 100.512 180.108 100.368 180.072 100.296C179.712 99.684 179.172 99.216 178.524 98.892C178.164 98.712 177.732 98.64 177.336 98.712C176.58 98.892 176.076 99.54 176.076 100.332C176.112 100.476 176.148 100.62 176.256 100.728C176.4 100.908 176.544 101.088 176.724 101.232C176.868 101.34 177.48 101.772 177.48 101.484Z" fill="#000005"/>
<path d="M167.652 100.908C167.652 100.836 167.652 100.8 167.652 100.728V100.908C167.652 100.764 167.688 100.656 167.76 100.548L167.688 100.656C167.76 100.584 167.832 100.476 167.94 100.44L167.796 100.512C167.868 100.476 167.976 100.404 168.084 100.404L167.904 100.44C167.976 100.44 168.012 100.404 168.084 100.404C167.868 100.44 167.94 100.404 168.048 100.404C168.192 100.404 167.868 100.368 167.976 100.368L168.084 100.404C168.228 100.44 167.904 100.332 167.976 100.368L168.048 100.404C168.192 100.476 167.832 100.26 167.976 100.368L168.048 100.404C168.12 100.44 167.868 100.26 167.976 100.368C168.084 100.476 168.048 100.476 168.12 100.512C167.976 100.368 168.048 100.44 168.084 100.476C168.084 100.512 168.12 100.548 168.156 100.548C168.192 100.62 168.228 100.692 168.264 100.728L168.192 100.584C168.3 100.8 168.372 101.016 168.444 101.268C168.516 101.448 168.66 101.628 168.84 101.736C169.02 101.88 169.272 101.952 169.488 101.952C169.668 101.988 169.848 101.952 169.992 101.808C170.1 101.7 170.136 101.52 170.1 101.376C170.028 100.944 169.848 100.584 169.596 100.224C169.236 99.72 168.696 99.396 168.12 99.216C167.58 99.036 167.04 99.108 166.572 99.432C166.248 99.648 166.032 100.044 166.032 100.44C166.032 100.836 166.536 101.16 166.896 101.232C167.076 101.34 167.652 101.34 167.652 100.908Z" fill="#000005"/>
<path d="M170.532 115.164C171.756 115.704 173.088 115.848 174.384 115.668C175.716 115.56 177.012 115.128 178.164 114.372C179.676 113.292 180.252 111.564 180.18 109.764C180.18 109.656 179.928 109.62 179.856 109.62C177.624 109.548 175.32 110.052 173.484 111.384C172.224 112.32 171.216 113.58 170.532 115.02C170.388 115.308 171.144 115.236 171.252 115.236C171.576 115.2 172.116 115.056 172.26 114.768C172.8 113.58 173.628 112.572 174.6 111.708C175.752 110.736 177.264 110.268 178.74 110.376L178.416 110.232C178.452 111.6 178.164 113.076 177.12 114.048C175.86 115.2 173.7 115.308 172.188 114.588C171.828 114.48 171.432 114.48 171.072 114.66C170.964 114.66 170.244 115.02 170.532 115.164Z" fill="#000005"/>
<path d="M179.281 109.98C179.245 109.044 179.065 108.108 178.741 107.244C176.545 108.216 167.977 108.108 167.977 108.108C168.121 110.16 168.697 113.58 171.325 114.84C172.441 112.716 174.637 109.8 179.281 109.98Z" fill="#000005"/>
<path d="M180.181 109.872C180.145 108.936 179.965 108 179.641 107.136C179.497 106.704 178.561 106.848 178.273 106.992C178.165 107.028 178.057 107.064 177.949 107.1C177.769 107.172 178.021 107.064 177.877 107.136L177.625 107.208C177.445 107.244 177.301 107.28 177.157 107.316C177.049 107.352 177.193 107.316 177.193 107.316H177.085L176.725 107.352C175.897 107.46 174.925 107.568 174.205 107.604C172.549 107.712 170.893 107.748 169.273 107.748H168.229C168.013 107.748 167.113 107.82 167.149 108.216C167.329 110.844 168.121 113.832 170.641 115.128C171.001 115.308 172.045 115.308 172.261 114.84C172.837 113.652 173.629 112.608 174.637 111.744C175.897 110.736 177.481 110.232 179.101 110.34C179.389 110.34 180.037 110.268 180.181 109.98C180.325 109.692 179.677 109.62 179.497 109.62C177.337 109.512 175.177 110.124 173.377 111.348C172.153 112.284 171.145 113.508 170.497 114.876L172.117 114.588C169.741 113.4 169.057 110.448 168.877 108L167.797 108.468C170.785 108.54 173.737 108.396 176.689 108.072C177.553 108 178.417 107.784 179.245 107.496L177.877 107.352C178.201 108.252 178.345 109.152 178.381 110.088C178.417 110.556 180.217 110.412 180.181 109.872Z" fill="#000005"/>
<path d="M152.064 91.26C150.732 94.788 149.688 98.46 148.968 102.168C148.608 103.932 148.356 105.732 148.212 107.496C148.176 107.784 148.608 108.252 148.788 108.432C148.824 108.504 149.328 109.008 149.328 108.828C149.832 103.68 150.984 98.604 152.748 93.744C152.892 93.384 153 93.024 153.144 92.664C153.216 92.448 152.856 92.016 152.748 91.836C152.676 91.836 152.1 91.152 152.064 91.26Z" fill="white"/>
<path d="M187.776 85.86C190.224 90.108 192.42 94.5 194.292 99.036C195.12 101.016 195.876 103.032 196.488 105.12C196.632 105.552 197.028 105.876 197.496 105.876C197.856 105.876 198.144 105.588 198.144 105.228C198.144 105.156 198.144 105.12 198.108 105.048C196.164 98.676 193.248 92.592 190.044 86.796C189.792 86.328 189.54 85.86 189.252 85.428C189.036 84.996 188.568 84.78 188.1 84.888C187.74 84.996 187.56 85.392 187.668 85.716C187.704 85.752 187.74 85.824 187.776 85.86Z" fill="white"/>
<path d="M210.6 117.108C213.516 115.74 216.108 113.76 218.232 111.348C219.204 110.232 220.284 108.972 220.824 107.568C221.112 106.884 221.184 106.128 220.968 105.408C220.788 104.616 220.356 103.932 219.744 103.392C218.808 102.672 217.476 103.284 216.936 104.256C216.252 105.552 217.296 107.424 218.268 108.252C219.42 109.26 221.004 109.26 222.3 108.54C223.596 107.748 224.676 106.596 225.324 105.228C226.944 102.132 227.016 98.46 227.052 95.076C227.016 94.644 226.836 94.248 226.584 93.924C226.512 93.816 226.188 93.384 226.188 93.78C226.152 96.408 226.08 99.108 225.324 101.664C224.604 104.04 223.02 106.812 220.392 107.424C219.78 107.568 219.096 107.532 218.52 107.28C218.268 107.172 218.016 107.028 217.8 106.848C217.728 106.776 217.656 106.668 217.548 106.596C217.584 106.596 217.224 106.416 217.584 106.668C217.692 106.74 217.584 106.74 217.62 106.596C217.692 105.588 218.52 104.796 219.528 104.796C219.744 104.796 219.96 104.868 220.14 104.976C220.176 105.012 220.248 105.084 220.284 105.084C220.5 105.12 220.068 104.724 220.14 104.724C220.14 104.832 220.14 104.976 220.14 105.12C220.068 105.732 219.852 106.344 219.564 106.848C218.88 108.036 218.052 109.116 217.08 110.124C214.992 112.392 212.508 114.228 209.736 115.56C209.52 115.596 210.276 117.216 210.6 117.108Z" fill="#000005"/>
<path d="M209.7 138.24C212.652 139.716 216.108 139.86 219.168 138.6C219.564 138.42 219.204 137.844 219.024 137.7C218.736 137.376 218.304 137.268 217.908 137.412C215.316 138.456 212.436 138.348 209.916 137.088C209.628 136.944 209.124 136.908 209.016 137.304C208.908 137.7 209.412 138.06 209.7 138.24Z" fill="#000005"/>
<path d="M209.628 156.06C209.844 156.06 209.556 156.06 209.592 155.988C209.592 156.024 209.88 156.348 209.88 156.384C210.096 156.78 210.24 157.176 210.348 157.608C210.708 158.724 210.96 159.876 211.176 161.064C211.392 162.18 211.536 163.332 211.608 164.448C211.644 165.168 211.86 166.428 211.032 166.752H211.5C211.644 166.788 211.5 166.716 211.428 166.68C211.32 166.536 211.248 166.356 211.176 166.176C211.032 165.744 211.032 165.312 211.14 164.916C211.428 163.944 212.292 163.26 213.336 163.188C215.712 162.936 216.684 165.672 216.756 167.616C216.828 169.092 216.432 170.532 215.676 171.792C215.388 172.296 216.9 173.232 217.188 172.764C218.556 170.46 218.7 167.616 217.512 165.24C216.396 163.08 213.696 161.28 211.212 162.288C209.052 163.188 209.052 165.96 210.78 167.292C211.212 167.652 212.004 168.156 212.544 167.832C212.94 167.544 213.192 167.076 213.192 166.572C213.228 165.888 213.192 165.24 213.12 164.592C213.048 163.8 212.94 163.008 212.796 162.216C212.58 160.596 212.184 159.012 211.608 157.464C211.068 156.132 209.988 154.98 208.476 154.944C208.044 154.944 208.296 155.448 208.44 155.592C208.764 155.808 209.196 156.024 209.628 156.06Z" fill="#000005"/>
<path d="M135.756 140.436C133.092 141.552 130.608 143.028 128.34 144.792C127.872 145.152 129.384 146.052 129.852 145.692C132.048 143.964 134.46 142.524 137.016 141.444C137.7 141.192 136.224 140.256 135.756 140.436Z" fill="#000005"/>
<path d="M136.476 123.012C134.316 123.228 132.12 122.868 130.14 121.968C129.744 121.824 129.276 121.896 128.916 122.112C128.7 122.256 128.376 122.616 128.772 122.796C131.112 123.84 133.704 124.236 136.26 123.948C136.584 123.912 137.196 123.732 137.268 123.372C137.34 123.012 136.728 122.976 136.476 123.012Z" fill="#000005"/>
<path d="M133.416 109.62C128.16 110.052 123.012 108 119.52 104.04C119.448 103.932 119.34 103.824 119.268 103.716C119.232 103.644 119.16 103.572 119.088 103.5L119.16 103.608C119.232 103.752 119.232 103.752 119.232 103.644C119.232 103.572 119.268 103.5 119.268 103.428C119.304 103.32 119.376 103.212 119.448 103.104C119.556 102.996 119.664 102.888 119.808 102.78C120.312 102.42 120.96 102.24 121.572 102.276C122.256 102.276 122.868 102.528 123.372 102.996C123.444 103.032 123.66 103.356 123.516 103.14C123.372 102.924 123.48 103.176 123.516 103.248C123.588 103.536 123.588 103.86 123.516 104.184C123.12 106.524 120.096 107.244 118.224 106.272C117.144 105.732 116.352 104.724 116.064 103.536C115.632 101.772 115.776 99.936 115.884 98.172C115.848 97.812 115.704 97.452 115.452 97.128C115.416 97.056 114.984 96.48 114.984 96.66C114.876 98.604 114.768 100.584 115.272 102.456C115.668 104.076 116.496 105.552 117.612 106.812C118.548 107.892 119.952 108.432 121.356 108.288C122.652 108.144 123.732 107.352 124.236 106.164C124.776 104.652 123.876 102.708 122.796 101.628C121.716 100.548 119.916 100.368 118.764 101.34C118.044 101.952 118.368 102.852 118.728 103.572C119.16 104.364 119.7 105.12 120.348 105.768C121.392 106.92 122.616 107.928 123.948 108.72C127.008 110.628 130.608 111.456 134.208 111.168C134.352 111.168 133.956 110.376 133.92 110.304C133.884 110.196 133.632 109.62 133.416 109.62Z" fill="#000005"/>
<path d="M123.589 135C121.717 135.18 120.133 136.404 119.413 138.096C119.269 138.456 119.593 138.924 119.809 139.176C119.917 139.32 120.421 139.752 120.565 139.392C121.213 137.808 122.689 136.692 124.381 136.512C124.993 136.476 124.165 134.928 123.589 135Z" fill="#000005"/>
<path d="M132.84 55.44C133.38 57.636 134.028 59.832 134.784 61.992C134.928 62.424 135.36 62.712 135.828 62.64C136.26 62.496 136.476 62.064 136.368 61.632V61.596C135.612 59.472 134.964 57.276 134.424 55.08C134.316 54.612 133.848 54.324 133.38 54.396C132.948 54.54 132.696 55.008 132.84 55.44Z" fill="white"/>
<path d="M128.125 59.544C128.305 61.128 128.665 62.712 129.169 64.224C129.205 64.368 129.457 64.476 129.601 64.512C129.817 64.584 130.069 64.584 130.285 64.548C130.609 64.476 131.041 64.296 130.897 63.9C130.393 62.496 130.069 61.02 129.925 59.508C129.889 59.112 129.349 59.004 129.025 59.004C128.701 59.004 128.089 59.184 128.125 59.544Z" fill="white"/>
<path d="M192.6 44.64L192.996 52.056C192.996 52.2 193.824 51.948 193.896 51.912C194.04 51.876 194.724 51.696 194.724 51.48L194.328 44.064C194.328 43.92 193.5 44.172 193.428 44.208C193.284 44.28 192.6 44.46 192.6 44.64Z" fill="white"/>
<path d="M198.396 47.232L198.54 52.128C198.54 52.524 199.224 52.596 199.512 52.524C199.836 52.452 200.34 52.272 200.34 51.876L200.196 46.98C200.196 46.584 199.512 46.512 199.224 46.584C198.9 46.62 198.396 46.8 198.396 47.232Z" fill="white"/>
<path d="M237.458 189.162V199.029M232.524 194.095H242.392" stroke="#326144" stroke-width="1.4096" stroke-linecap="round" stroke-linejoin="round"/>
<path d="M85.7305 194.024V203.891M80.7969 198.958H90.664" stroke="#326144" stroke-width="1.4096" stroke-linecap="round" stroke-linejoin="round"/>
<circle cx="84.365" cy="57.7364" r="1.36503" fill="#326144"/>
<circle cx="259.374" cy="153.237" r="1.36503" fill="#326144"/>
</g>
<defs>
<clipPath id="clip0_18611_6649">
<rect width="331" height="233" fill="white" transform="translate(0 0.5)"/>
</clipPath>
</defs>
</svg>
