<svg width="331" height="234" viewBox="0 0 331 234" fill="none" xmlns="http://www.w3.org/2000/svg">
<g opacity="0.8" clip-path="url(#clip0_18613_6847)">
<path opacity="0.08" d="M272.169 86.9037C273.008 91.1812 272.169 98.0533 272.169 98.0533C271.101 106.683 266.002 126.234 254.144 135.396C239.322 146.849 217.23 164.606 149.373 177.626C95.0883 188.042 72.1514 165.558 67.4686 153.014C56.5933 130.73 61.4491 112.126 68.98 102.485C75.9251 93.5941 84.4447 91.5608 91.8718 91.4751C99.2988 91.3894 112.178 93.4785 122.795 94.3362C131.288 95.0223 187.578 77.4691 214.661 68.6067C214.661 68.6067 221.439 66.1608 230.149 62.403C235.147 60.2466 240.576 60.1899 245.922 61.3168C253.432 62.9 257.661 65.4168 263.027 70.7512C268.208 75.9029 270.782 79.8354 272.169 86.9037Z" fill="#326144" stroke="#326144" stroke-width="1.4096" stroke-linecap="round" stroke-linejoin="round"/>
<path d="M176.292 173.808C176.112 175.716 175.284 177.66 176.724 177.408C178.164 177.156 199.332 178.308 199.332 177.228C199.332 176.148 194.58 172.224 194.58 172.224C194.58 172.224 195.624 147.456 195.372 127.332L176.544 130.68C176.58 130.716 176.58 170.424 176.292 173.808Z" fill="#326144"/>
<path d="M175.392 173.88C175.284 174.816 174.996 175.788 174.996 176.724C174.996 177.66 175.788 177.624 176.508 177.552C176.652 177.552 176.832 177.516 176.976 177.516C176.616 177.552 176.724 177.552 176.796 177.552H176.652C176.868 177.552 176.544 177.552 176.616 177.552H176.796C177.12 177.552 177.408 177.552 177.732 177.552C179.82 177.588 182.052 177.66 184.284 177.732C187.02 177.804 189.792 177.876 192.528 177.912C194.616 177.912 196.74 177.984 198.792 177.66C199.08 177.624 200.124 177.552 200.232 177.156C200.304 176.832 199.836 176.364 199.692 176.148C199.296 175.68 198.864 175.212 198.432 174.78C197.568 173.916 196.668 173.124 195.732 172.368C195.624 172.296 195.552 172.224 195.48 172.152C195.444 172.08 195.516 172.224 195.48 172.152C195.48 172.044 195.48 171.9 195.48 171.792C195.696 166.752 195.84 161.712 195.984 156.672C196.2 147.96 196.344 139.284 196.308 130.572C196.308 129.492 196.308 128.412 196.272 127.332C196.272 127.152 195.192 127.296 195.12 127.296L188.748 128.412L178.632 130.212L176.292 130.608C176.22 130.608 175.644 130.68 175.644 130.824C175.644 132.156 175.644 133.452 175.644 134.784C175.644 138.024 175.644 141.228 175.644 144.468C175.644 148.428 175.644 152.424 175.608 156.384C175.572 160.02 175.572 163.62 175.536 167.256C175.5 169.38 175.536 171.504 175.392 173.592V173.88C175.392 174.024 177.156 174.024 177.192 173.7C177.372 171.864 177.3 169.992 177.336 168.156C177.372 164.664 177.408 161.172 177.408 157.68C177.444 153.684 177.444 149.688 177.444 145.692C177.444 142.308 177.444 138.924 177.444 135.54V132.264C177.48 131.76 177.48 131.22 177.444 130.716C177.444 130.68 177.444 130.68 177.444 130.644L176.796 130.86L183.168 129.744L193.284 127.944L195.588 127.548L194.436 127.512C194.544 136.152 194.436 144.792 194.22 153.432C194.076 159.228 193.896 165.024 193.68 170.82C193.644 171.288 193.608 171.792 193.608 172.26C193.644 172.584 194.112 172.836 194.328 173.016C195.336 173.844 196.272 174.744 197.208 175.68C197.604 176.04 197.928 176.472 198.216 176.94C198.288 177.048 198.36 177.192 198.36 177.336C198.36 177.444 198.324 177.336 198.324 177.408C198.324 177.444 198.396 177.336 198.324 177.408C198.252 177.48 198.468 177.372 198.324 177.408C198.18 177.444 198.504 177.372 198.324 177.408C198.144 177.444 198.54 177.372 198.324 177.408C198.108 177.444 198.432 177.408 198.324 177.408L198.108 177.444H197.964C197.784 177.48 198.18 177.444 198 177.444L197.712 177.48C197.532 177.48 197.352 177.516 197.172 177.516C197.1 177.516 196.74 177.516 196.956 177.516H196.56C196.02 177.516 195.516 177.552 194.976 177.552C192.42 177.552 189.864 177.516 187.308 177.444C184.896 177.372 182.484 177.3 180.036 177.264C179.244 177.264 178.488 177.228 177.696 177.228C177.444 177.228 177.156 177.228 176.904 177.264L176.58 177.3C176.508 177.3 176.4 177.3 176.328 177.336L176.976 177.3C176.94 177.3 176.904 177.264 176.868 177.264C176.688 177.048 176.58 176.796 176.616 176.508C176.616 175.572 176.904 174.672 177.012 173.736C177.192 173.592 175.428 173.556 175.392 173.88Z" fill="#326144"/>
<path d="M173.304 173.88C173.484 175.788 174.312 177.732 172.872 177.48C171.432 177.228 150.264 178.416 150.264 177.3C150.264 176.184 155.016 172.296 155.016 172.296C155.016 172.296 153.972 147.528 154.224 127.44L173.052 130.788C172.98 130.788 172.98 170.496 173.304 173.88Z" fill="#326144"/>
<path d="M172.44 173.592C172.512 174.492 172.8 175.428 172.836 176.364C172.836 176.616 172.836 176.976 172.62 177.12C172.44 177.192 172.26 177.228 172.08 177.192C171.576 177.156 171.036 177.156 170.532 177.192C168.336 177.228 166.176 177.3 163.98 177.372C161.316 177.444 158.652 177.516 155.988 177.552C154.872 177.552 153.756 177.552 152.64 177.516C152.208 177.516 151.776 177.48 151.344 177.444C151.164 177.444 151.02 177.408 150.84 177.408L150.588 177.372C150.66 177.372 150.516 177.372 150.444 177.336L150.264 177.3C150.084 177.264 150.408 177.336 150.264 177.3C150.336 177.336 150.372 177.336 150.552 177.372C150.732 177.408 150.984 177.552 151.092 177.624C151.2 177.696 151.092 177.66 151.128 177.588C151.164 177.408 151.236 177.264 151.308 177.12C151.92 176.076 152.928 175.248 153.792 174.42C154.224 174.024 154.692 173.592 155.16 173.196C155.34 173.052 155.736 172.836 155.844 172.62C155.88 172.368 155.88 172.152 155.808 171.9C155.592 166.752 155.448 161.568 155.304 156.42C155.088 147.924 154.944 139.464 155.016 130.968C155.016 129.888 155.016 128.808 155.052 127.728H154.764L161.136 128.88L171.252 130.68L173.592 131.076L172.152 130.5V134.46C172.152 137.7 172.152 140.904 172.188 144.144C172.188 148.104 172.188 152.1 172.224 156.06C172.224 159.696 172.26 163.296 172.296 166.932C172.332 169.056 172.296 171.18 172.44 173.268C172.404 173.376 172.404 173.484 172.44 173.592C172.44 173.808 173.088 173.952 173.232 174.024C173.304 174.024 174.132 174.276 174.132 174.168C173.952 172.332 174.024 170.46 173.988 168.624C173.952 165.132 173.916 161.64 173.916 158.148C173.88 154.152 173.88 150.156 173.88 146.196C173.88 142.812 173.88 139.428 173.88 136.044C173.88 134.964 173.88 133.848 173.88 132.768V131.724C173.916 131.544 173.916 131.364 173.88 131.184C173.88 131.148 173.88 131.148 173.88 131.112C173.88 130.824 172.692 130.572 172.44 130.536L166.068 129.42L155.952 127.62L153.648 127.224C153.684 127.224 153.36 127.188 153.36 127.224C153.252 136.08 153.36 144.936 153.576 153.792C153.72 159.516 153.9 165.204 154.116 170.928L154.152 171.684C154.152 171.792 154.152 171.936 154.152 172.044C154.116 172.152 153.972 172.224 153.864 172.296C153.468 172.62 153.108 172.944 152.748 173.268C151.704 174.132 150.768 175.068 149.904 176.112C149.724 176.328 149.328 176.796 149.4 177.084C149.472 177.372 149.94 177.48 150.156 177.552C151.812 178.2 153.684 178.092 155.412 178.128C158.076 178.164 160.74 178.092 163.404 178.02C165.852 177.948 168.336 177.876 170.784 177.804C171.54 177.804 172.26 177.768 173.016 177.768H173.34C173.448 177.768 173.592 177.768 173.412 177.768C174.132 177.84 174.564 177.696 174.528 176.904C174.528 175.968 174.24 175.068 174.132 174.132C174.096 173.916 173.484 173.772 173.34 173.7C173.268 173.7 172.44 173.484 172.44 173.592Z" fill="#326144"/>
<path d="M154.8 62.316C154.8 62.316 140.4 64.764 143.928 96.444C147.456 128.124 166.536 147.312 194.94 129.312C223.344 111.312 175.248 50.04 154.8 62.316Z" fill="#326144"/>
<path d="M154.584 61.812C153.864 61.956 153.144 62.208 152.496 62.532C150.984 63.288 149.652 64.332 148.536 65.592C146.736 67.68 145.404 70.092 144.54 72.684C143.136 76.788 142.596 81.18 142.488 85.536C142.38 91.476 142.92 97.416 144.072 103.248C145.008 108.252 146.52 113.148 148.608 117.792C150.444 121.752 152.82 125.568 155.88 128.7C161.568 134.82 169.884 137.736 178.128 136.548C183.096 135.9 187.884 134.064 192.276 131.688C195.588 129.888 198.756 127.836 200.988 124.74C202.68 122.364 203.796 119.628 204.264 116.748C204.732 113.688 204.696 110.556 204.156 107.496C203.58 104.076 202.608 100.692 201.24 97.488C199.8 94.032 198.108 90.72 196.128 87.552C194.112 84.276 191.844 81.18 189.396 78.228C187.02 75.384 184.464 72.72 181.692 70.272C179.136 68.004 176.4 65.952 173.448 64.188C170.892 62.64 168.084 61.452 165.204 60.696C162.648 60.048 159.984 59.976 157.428 60.552C156.276 60.84 155.196 61.272 154.188 61.884C153.972 61.956 153.9 62.208 153.972 62.388C154.008 62.46 154.08 62.532 154.152 62.604C154.548 62.82 155.016 62.856 155.412 62.676C155.916 62.388 156.42 62.136 156.96 61.92C157.14 61.848 156.888 61.956 156.996 61.92L157.212 61.848L157.608 61.704C157.896 61.632 158.148 61.56 158.436 61.488C158.508 61.488 158.904 61.38 158.652 61.452L159.12 61.38C159.408 61.344 159.696 61.308 159.984 61.272C160.128 61.272 160.272 61.236 160.38 61.236H160.596C160.308 61.236 160.596 61.236 160.668 61.236C160.956 61.236 161.244 61.236 161.568 61.236C161.892 61.236 162.18 61.272 162.504 61.308L162.72 61.344H162.756L163.224 61.416C163.872 61.524 164.484 61.668 165.132 61.812L165.6 61.92L165.528 61.884L165.636 61.92L165.924 61.992C166.248 62.1 166.572 62.208 166.896 62.316C167.58 62.568 168.228 62.82 168.876 63.108C169.2 63.252 169.524 63.396 169.848 63.576L170.1 63.684L170.208 63.756C170.388 63.864 170.568 63.936 170.748 64.044C171.432 64.404 172.08 64.764 172.728 65.16C174.096 65.988 175.464 66.924 176.724 67.896C179.496 70.02 182.088 72.324 184.5 74.88C187.056 77.58 189.432 80.424 191.592 83.448C193.752 86.436 195.66 89.604 197.352 92.88C198.972 96.012 200.304 99.288 201.312 102.672C202.248 105.732 202.752 108.9 202.824 112.104C202.896 114.984 202.428 117.828 201.384 120.528C200.304 123.192 198.612 125.532 196.38 127.368C194.724 128.7 192.96 129.816 191.088 130.788C188.856 132.048 186.516 133.092 184.068 133.92C181.98 134.64 179.784 135.18 177.588 135.468C175.608 135.72 173.628 135.756 171.648 135.504C171.468 135.468 171.576 135.504 171.612 135.504L171.432 135.468L171.108 135.432C170.856 135.396 170.604 135.36 170.316 135.288C169.848 135.216 169.38 135.108 168.912 135C168.048 134.784 167.184 134.532 166.32 134.208C164.592 133.524 162.936 132.66 161.424 131.616C158.148 129.348 155.412 126.252 153.252 122.904C150.804 118.944 148.896 114.696 147.6 110.232C146.052 104.976 145.044 99.54 144.612 94.068C144.144 88.812 144.108 83.484 144.972 78.264C145.512 74.988 146.448 71.748 148.14 68.868C149.148 67.068 150.48 65.484 152.136 64.26L152.388 64.08L152.496 64.008C152.352 64.08 152.604 63.936 152.496 64.008C152.64 63.936 152.784 63.828 152.928 63.72C153.18 63.576 153.468 63.396 153.756 63.288L154.116 63.108C154.224 63.072 154.548 62.928 154.26 63.036C154.44 62.964 154.62 62.892 154.8 62.856C154.908 62.82 155.016 62.784 155.124 62.784C155.34 62.712 154.98 62.82 155.016 62.784C155.304 62.748 155.808 62.568 155.664 62.172C155.52 61.776 154.872 61.776 154.584 61.812Z" fill="#326144"/>
<path d="M192.565 126.216L194.905 143.964L193.141 145.26C191.377 146.556 193.609 148.464 193.609 148.464C193.609 148.464 192.781 151.164 195.985 151.884C199.189 152.604 199.405 149.184 199.405 149.184C200.701 152.388 202.825 148.824 202.825 148.824C202.825 148.824 203.689 151.488 206.137 147.96C208.585 144.432 205.453 105.228 199.657 97.164" fill="#326144"/>
<path d="M191.7 126.252L192.492 132.228L193.752 141.768L194.04 144L194.364 143.244L193.932 143.568C193.176 144.108 192.168 144.648 191.772 145.512C191.16 146.808 192.132 148.248 193.104 149.076L192.816 148.068C192.384 149.544 192.924 151.092 194.148 151.992C195.228 152.748 196.596 153 197.856 152.712C198.72 152.424 199.44 151.776 199.8 150.948C200.052 150.444 200.196 149.94 200.232 149.364L198.576 149.4C198.9 150.12 199.332 150.876 200.088 151.164C200.7 151.416 201.384 151.344 201.924 150.984C202.608 150.516 203.184 149.904 203.58 149.184L201.996 149.04C202.176 149.616 202.608 150.084 203.112 150.372C204.228 150.984 205.38 150.192 206.136 149.364C206.604 148.896 207 148.32 207.216 147.672C207.36 147.168 207.468 146.664 207.54 146.16C208.008 142.848 207.864 139.392 207.72 136.08C207.54 131.328 207.108 126.54 206.568 121.824C206.028 117.036 205.236 112.32 204.192 107.604C203.76 105.624 203.256 103.644 202.608 101.736C202.14 100.224 201.528 98.784 200.736 97.416C200.592 97.164 200.448 96.912 200.268 96.696C199.62 95.796 198.252 96.624 198.9 97.56C199.08 97.776 199.224 98.028 199.368 98.28C199.44 98.424 199.26 98.1 199.368 98.316C199.404 98.388 199.44 98.424 199.476 98.496C199.548 98.64 199.62 98.784 199.692 98.928C200.016 99.612 200.304 100.26 200.556 100.98C200.844 101.772 201.096 102.6 201.348 103.392C201.492 103.896 201.528 104.076 201.708 104.616C201.852 105.12 201.96 105.588 202.068 106.092C203.112 110.484 203.904 114.948 204.48 119.412C205.092 124.092 205.56 128.772 205.848 133.488C205.956 135.504 206.028 137.484 206.064 139.392C206.064 140.976 206.064 142.56 205.956 144.144C205.92 144.72 205.848 145.332 205.776 145.908C205.74 146.16 205.704 146.376 205.632 146.628L205.596 146.772C205.56 146.952 205.632 146.628 205.596 146.736C205.56 146.844 205.56 146.916 205.524 147.024C205.488 147.132 205.38 147.312 205.344 147.42C205.308 147.528 205.452 147.276 205.38 147.312C205.308 147.348 205.2 147.6 205.092 147.672C204.876 147.996 204.624 148.284 204.336 148.536C204.228 148.608 204.12 148.68 204.012 148.752C203.976 148.788 203.904 148.824 203.868 148.824C203.904 148.824 204.012 148.788 203.868 148.824L203.724 148.86C203.544 148.896 203.76 148.86 203.76 148.86C203.76 148.86 203.688 148.86 203.652 148.86C203.724 148.788 203.796 148.896 203.652 148.86C203.508 148.824 203.832 148.932 203.652 148.86C203.544 148.824 203.832 149.004 203.652 148.86C203.472 148.716 203.76 149.04 203.652 148.86C203.616 148.824 203.58 148.752 203.544 148.716C203.436 148.572 203.616 148.932 203.544 148.752C203.544 148.716 203.508 148.68 203.508 148.644L203.472 148.536C203.292 148.068 202.788 147.852 202.32 147.996C202.14 148.068 201.96 148.212 201.852 148.356C202.068 147.996 201.924 148.248 201.852 148.32C201.78 148.392 201.708 148.5 201.636 148.608C201.564 148.716 201.42 148.896 201.276 149.004L201.132 149.148L201.024 149.256C201.096 149.184 201.096 149.184 201.024 149.256C200.88 149.364 200.736 149.472 200.592 149.544C200.772 149.472 200.484 149.58 200.448 149.58C200.7 149.544 200.232 149.688 200.484 149.58C200.376 149.544 200.412 149.58 200.484 149.58L200.412 149.544C200.34 149.508 200.34 149.508 200.412 149.544C200.376 149.508 200.34 149.472 200.268 149.436C200.34 149.544 200.124 149.256 200.124 149.22C200.052 149.076 199.98 148.968 199.944 148.824C199.656 148.14 198.36 147.924 198.288 148.86C198.288 148.932 198.288 149.04 198.252 149.112C198.216 149.184 198.216 149.292 198.216 149.364C198.18 149.544 198.252 149.256 198.216 149.4C198.18 149.472 198.18 149.544 198.144 149.58C198.108 149.688 198.036 149.832 198 149.94L197.928 150.12C197.928 150.156 197.892 150.192 197.892 150.192C197.82 150.3 197.964 150.084 197.892 150.192C197.82 150.3 197.712 150.444 197.604 150.552C197.568 150.588 197.46 150.696 197.568 150.624C197.496 150.696 197.424 150.732 197.316 150.804C197.064 150.948 196.776 151.02 196.488 151.02C196.02 151.02 195.552 150.912 195.156 150.732C194.976 150.66 194.832 150.588 194.724 150.48C194.652 150.444 194.58 150.372 194.508 150.3C194.616 150.408 194.472 150.228 194.436 150.192C194.328 150.012 194.22 149.796 194.184 149.58C194.184 149.508 194.148 149.436 194.148 149.364C194.148 149.292 194.148 149.292 194.148 149.292C194.148 149.148 194.148 149.4 194.148 149.292C194.148 149.184 194.148 149.076 194.184 148.932C194.22 148.788 194.22 148.752 194.22 148.68C194.256 148.5 194.184 148.86 194.184 148.752C194.292 148.392 194.184 147.996 193.896 147.744C193.824 147.672 193.752 147.6 193.68 147.528C193.86 147.708 193.644 147.456 193.572 147.384C193.5 147.312 193.392 147.168 193.32 147.06C193.104 146.736 192.96 146.376 193.284 146.016C193.788 145.548 194.364 145.152 194.94 144.792L195.228 144.576C195.48 144.396 195.588 144.108 195.552 143.82L194.76 137.844L193.536 128.304L193.248 126.108C193.248 125.172 191.556 125.1 191.7 126.252Z" fill="#326144"/>
<path d="M160.848 134.82C162.216 135.576 163.656 136.152 165.168 136.584C168.876 137.736 172.728 138.24 176.616 138.06C179.568 137.952 182.52 137.484 185.364 136.656C185.76 136.548 186.12 136.332 186.444 136.044C186.516 135.972 186.912 135.504 186.552 135.612C179.136 137.7 170.892 137.52 163.764 134.46C163.296 134.28 162.828 134.028 162.36 133.776C162.144 133.632 161.676 133.992 161.496 134.1C161.424 134.172 160.704 134.712 160.848 134.82Z" fill="white"/>
<path d="M192.24 127.008C192.42 128.916 192.672 130.824 192.924 132.768C193.248 135.396 193.572 138.024 193.86 140.652C193.968 141.48 194.076 142.308 194.148 143.172L194.328 142.74C193.284 143.172 192.168 143.892 191.556 144.828C191.088 145.584 191.088 146.556 191.52 147.312C191.844 147.888 192.312 148.356 192.816 148.752C193.284 149.112 193.86 149.508 194.472 149.4C195.264 149.256 195.84 148.32 196.128 147.636C196.236 147.24 196.128 146.808 195.804 146.52C195.624 146.34 195.084 145.98 194.904 146.376C194.724 146.88 194.4 147.312 194.004 147.672C193.68 147.924 193.536 147.816 193.212 147.6C193.068 147.492 192.888 147.384 192.744 147.24C192.708 147.204 192.564 147.024 192.636 147.132C192.6 147.096 192.6 147.06 192.564 147.024C192.492 146.88 192.672 147.204 192.528 146.988C192.492 146.952 192.492 146.88 192.492 146.844C192.492 146.808 192.492 146.664 192.492 146.772C192.492 146.7 192.528 146.628 192.528 146.556C192.6 146.304 192.744 146.052 192.924 145.836C193.32 145.404 193.788 145.008 194.328 144.72C194.652 144.54 194.976 144.36 195.336 144.216C195.48 144.144 195.516 143.892 195.516 143.784C195.336 141.876 195.084 139.968 194.832 138.024C194.508 135.396 194.184 132.768 193.896 130.14C193.788 129.312 193.68 128.484 193.608 127.62C193.572 127.188 193.284 126.792 192.888 126.576C192.708 126.468 192.42 126.504 192.312 126.72C192.276 126.756 192.24 126.864 192.24 127.008Z" fill="white"/>
<path d="M196.56 151.812L196.488 151.776L196.38 151.74C196.128 151.596 195.876 151.452 195.624 151.308C195.48 151.2 195.336 151.092 195.192 150.984L195.012 150.804C194.976 150.768 194.94 150.732 194.904 150.696L194.868 150.66C194.796 150.588 194.868 150.66 194.904 150.696C194.868 150.624 194.796 150.552 194.76 150.48C194.724 150.408 194.652 150.336 194.616 150.264C194.58 150.192 194.544 150.12 194.472 150.048C194.4 149.976 194.436 149.868 194.472 150.048C194.472 150.012 194.436 149.94 194.436 149.904C194.4 149.796 194.4 149.724 194.364 149.616V149.58C194.364 149.472 194.4 149.508 194.364 149.616C194.364 149.58 194.364 149.508 194.364 149.472C194.364 149.436 194.364 149.364 194.4 149.328C194.364 149.472 194.436 149.148 194.4 149.328C194.436 149.22 194.472 149.076 194.544 148.968C194.688 148.716 194.58 148.392 194.292 148.248C194.22 148.212 194.148 148.176 194.04 148.212C193.572 148.212 193.14 148.464 192.96 148.896C192.528 149.76 192.636 150.804 193.284 151.524C193.752 152.1 194.364 152.568 195.048 152.892C195.228 153 195.444 153.108 195.624 153.18C195.84 153.216 196.056 153.216 196.236 153.144C196.452 153.072 196.632 152.892 196.776 152.712C196.992 152.352 196.992 151.956 196.56 151.812Z" fill="white"/>
<path d="M152.567 124.164C152.567 124.164 144.611 97.56 142.415 96.984C140.219 96.408 136.547 100.224 137.411 110.052C137.951 116.064 139.139 122.004 140.903 127.764C140.903 127.764 143.855 137.484 154.259 133.56C154.259 133.56 156.311 130.572 152.567 124.164Z" fill="#326144"/>
<path d="M153.396 124.092C152.964 122.688 152.532 121.248 152.1 119.844C151.128 116.712 150.12 113.616 149.076 110.556C147.996 107.388 146.916 104.184 145.62 101.088C145.188 100.008 144.72 98.964 144.18 97.956C143.82 97.308 143.388 96.516 142.668 96.228C141.624 95.796 140.364 96.336 139.572 97.056C138.384 98.136 137.628 99.648 137.196 101.16C136.512 103.572 136.26 106.056 136.44 108.54C136.62 111.708 137.016 114.876 137.628 118.008C138.204 121.32 138.996 124.596 140.004 127.836C140.544 129.456 141.408 130.932 142.56 132.192C143.64 133.38 145.008 134.28 146.52 134.82C148.536 135.432 150.66 135.468 152.712 134.928C153.324 134.784 153.936 134.604 154.512 134.352C154.692 134.28 154.872 134.172 154.98 133.992C155.16 133.668 155.34 133.308 155.412 132.948C155.844 131.256 155.592 129.456 155.088 127.836C154.62 126.468 154.044 125.136 153.288 123.876C153.072 123.444 152.568 123.228 152.136 123.372C151.74 123.516 151.56 123.948 151.704 124.344C151.704 124.38 151.74 124.416 151.74 124.452C152.928 126.468 153.972 128.88 153.9 131.148C153.9 131.472 153.864 131.796 153.792 132.12C153.828 131.904 153.756 132.264 153.756 132.336C153.756 132.408 153.684 132.552 153.648 132.66C153.576 132.804 153.504 132.948 153.468 133.092C153.432 133.02 153.612 132.876 153.468 133.056L153.792 132.804C152.064 133.452 150.192 133.848 148.428 133.632C148.068 133.596 147.672 133.524 147.312 133.416L147.168 133.38L146.916 133.308C146.736 133.236 146.592 133.2 146.412 133.128L145.98 132.912L145.764 132.804L145.656 132.732C145.548 132.66 145.8 132.804 145.656 132.732C145.368 132.552 145.116 132.408 144.864 132.192C144.612 132.012 144.36 131.796 144.144 131.58C144.288 131.724 144.036 131.472 143.964 131.4C143.892 131.328 143.748 131.184 143.676 131.076C143.496 130.86 143.316 130.644 143.136 130.428L142.92 130.14V129.96L142.848 129.852L142.812 129.78L142.74 129.636C142.668 129.528 142.632 129.42 142.56 129.312C142.452 129.132 142.344 128.952 142.272 128.772C142.128 128.484 141.984 128.196 141.876 127.908C141.84 127.836 141.804 127.728 141.768 127.62C141.804 127.656 141.84 127.836 141.804 127.692C141.768 127.584 141.732 127.476 141.696 127.332C141.372 126.252 141.048 125.136 140.76 124.02C139.536 119.376 138.708 114.624 138.276 109.836C138.06 107.568 138.132 105.3 138.564 103.068C138.744 102.24 138.96 101.448 139.284 100.692C139.5 100.116 139.788 99.576 140.148 99.108C140.328 98.892 140.508 98.676 140.688 98.46C140.544 98.604 140.796 98.388 140.832 98.316C140.868 98.244 141.012 98.172 141.12 98.1L141.372 97.92C141.336 97.956 141.516 97.848 141.372 97.92L141.516 97.848C141.588 97.812 141.696 97.776 141.768 97.74C141.984 97.668 141.66 97.74 141.876 97.704C141.948 97.704 142.056 97.704 142.128 97.668C142.272 97.632 142.02 97.668 142.056 97.668C142.092 97.668 142.164 97.668 142.2 97.668C142.308 97.704 142.38 97.704 142.2 97.668C142.38 97.74 142.02 97.56 142.092 97.596C142.128 97.632 142.164 97.632 142.2 97.668C142.128 97.596 142.02 97.488 142.164 97.632C142.308 97.776 142.308 97.812 142.38 97.92C142.344 97.848 142.524 98.136 142.38 97.92C142.416 97.992 142.452 98.064 142.524 98.136C142.632 98.28 142.704 98.46 142.812 98.64C143.028 99.036 143.208 99.432 143.424 99.864C143.892 100.944 144.36 102.024 144.756 103.104C145.836 105.912 146.736 108.504 147.672 111.312C148.572 113.976 149.436 116.64 150.264 119.34C150.732 120.852 151.2 122.364 151.668 123.912L151.74 124.128C151.848 124.596 152.28 124.92 152.748 124.884C153.144 124.848 153.468 124.488 153.432 124.092C153.432 124.164 153.396 124.128 153.396 124.092Z" fill="#326144"/>
<path d="M143.172 107.784C143.1 107.1 143.064 106.38 143.064 105.696C142.992 104.472 143.064 103.212 143.316 101.988C143.352 101.844 143.388 101.736 143.424 101.592C143.424 101.556 143.496 101.376 143.46 101.484C143.424 101.592 143.496 101.412 143.496 101.376C143.532 101.268 143.604 101.196 143.64 101.088C143.64 101.052 143.784 100.908 143.676 101.016C143.568 101.124 143.712 100.98 143.748 100.944C143.784 100.908 143.82 100.872 143.856 100.872C143.892 100.8 143.748 100.872 143.82 100.908C143.892 100.944 143.892 100.872 143.928 100.872C143.784 100.908 143.82 100.944 143.928 100.908C143.964 100.908 143.748 100.908 143.892 100.908C144.036 100.908 143.82 100.872 143.856 100.908L144 100.944C144.18 100.98 143.928 100.872 144.036 100.944C144.072 100.98 144.108 100.98 144.144 101.016C144.324 101.088 144.108 100.98 144.108 100.98C144.18 101.052 144.288 101.124 144.36 101.196C144.432 101.268 144.612 101.52 144.468 101.304C144.54 101.412 144.648 101.52 144.72 101.628C144.9 101.844 145.044 102.096 145.188 102.348L145.296 102.564C145.332 102.636 145.296 102.564 145.296 102.528C145.296 102.492 145.332 102.6 145.332 102.636C145.404 102.78 145.476 102.96 145.548 103.104C146.808 105.876 147.564 109.008 148.14 111.852C148.428 113.22 148.68 114.588 148.896 115.956C149.508 119.52 150.912 123.084 153.18 125.892C153.576 126.36 153.972 126.828 154.404 127.296C154.728 127.62 155.268 127.656 155.628 127.368C155.916 127.044 155.88 126.54 155.592 126.252C155.592 126.252 155.556 126.252 155.556 126.216C154.008 124.56 152.82 122.652 151.992 120.528C151.632 119.664 151.344 118.8 151.092 117.9C150.984 117.54 150.912 117.18 150.84 116.856C150.876 117 150.804 116.64 150.768 116.568C150.732 116.424 150.732 116.28 150.696 116.172C150.444 114.732 150.192 113.292 149.904 111.852C149.22 108.72 148.5 105.48 147.132 102.6C146.628 101.484 145.98 100.224 144.864 99.576C143.712 98.892 142.416 99.216 141.876 100.476C141.336 101.736 141.264 103.14 141.228 104.472C141.192 105.48 141.228 106.488 141.336 107.532C141.336 107.604 141.336 107.64 141.336 107.712C141.552 108.648 143.28 108.864 143.172 107.784Z" fill="white"/>
<path d="M169.884 90.144C170.892 91.044 172.44 90.936 173.34 89.928C173.772 89.424 173.988 88.812 173.952 88.164C173.952 87.732 173.736 87.3 173.376 87.012C173.268 86.94 173.124 86.832 172.98 86.904C172.836 86.976 172.836 87.156 172.836 87.264V87.408C172.836 87.372 172.836 87.516 172.836 87.408C172.836 87.444 172.8 87.588 172.764 87.696C172.728 87.804 172.728 87.804 172.728 87.84C172.728 87.876 172.728 87.84 172.692 87.876C172.656 87.948 172.62 88.056 172.548 88.128C172.188 88.74 171.468 89.1 170.748 89.028C170.676 89.028 170.568 88.992 170.496 88.992C170.496 88.992 170.352 88.956 170.424 88.992L170.28 88.956C170.208 88.92 170.1 88.884 170.028 88.848C169.992 88.848 169.884 88.74 169.992 88.812C169.956 88.776 169.92 88.74 169.848 88.704C169.74 88.596 169.596 88.56 169.452 88.596C169.308 88.668 169.308 88.848 169.308 88.956C169.38 89.388 169.56 89.82 169.884 90.144Z" fill="#000005"/>
<path d="M163.836 91.404V91.44L163.872 91.224C163.836 91.404 163.8 91.584 163.728 91.728L163.8 91.512C163.728 91.692 163.62 91.836 163.512 91.98L163.656 91.8C163.548 91.944 163.44 92.088 163.296 92.196L163.476 92.052C163.332 92.16 163.224 92.232 163.044 92.304L163.26 92.196C163.08 92.268 162.936 92.34 162.756 92.376L162.972 92.34C162.792 92.376 162.612 92.376 162.432 92.376H162.648C162.576 92.376 162.468 92.376 162.396 92.34C161.928 92.268 161.46 92.556 161.316 93.024C161.244 93.24 161.28 93.456 161.388 93.636C161.496 93.816 161.712 93.96 161.928 93.996C162.756 94.14 163.62 93.924 164.304 93.42C164.664 93.168 164.952 92.844 165.168 92.484C165.384 92.124 165.528 91.692 165.564 91.26C165.564 91.044 165.492 90.828 165.312 90.684C165.132 90.54 164.916 90.468 164.7 90.504C164.448 90.54 164.232 90.648 164.052 90.792L163.908 90.972C163.908 91.116 163.872 91.26 163.836 91.404Z" fill="#000005"/>
<path d="M171.864 98.28C171.864 97.776 172.008 97.272 172.332 96.876C172.692 96.408 173.124 96.012 173.628 95.724C174.096 95.364 174.636 95.112 175.212 94.968C175.788 94.86 176.364 94.932 176.868 95.22C177.228 95.4 177.228 94.932 177.192 94.716C177.12 94.284 176.868 93.924 176.544 93.672C175.932 93.312 175.248 93.204 174.564 93.312C173.88 93.456 173.268 93.78 172.728 94.212C172.152 94.572 171.684 95.04 171.324 95.616C170.928 96.264 170.784 97.02 170.928 97.776C171 98.208 171.216 98.568 171.576 98.82C171.936 98.964 171.936 98.496 171.864 98.28Z" fill="#000005"/>
<path d="M178.56 89.496C178.56 89.496 179.244 93.132 180.54 91.656C181.836 90.18 178.56 89.496 178.56 89.496Z" fill="white"/>
<path d="M178.128 89.424C178.2 89.82 178.308 90.18 178.416 90.576C178.524 90.9 178.668 91.224 178.812 91.512C178.992 91.836 179.244 92.124 179.568 92.304C179.892 92.484 180.288 92.448 180.612 92.232C180.936 91.98 181.188 91.62 181.26 91.224C181.296 90.864 181.152 90.504 180.9 90.252C180.648 89.964 180.324 89.748 180 89.604C179.532 89.388 179.064 89.208 178.596 89.1L178.452 89.064C178.308 89.028 178.128 89.136 178.128 89.316C178.092 89.352 178.128 89.388 178.128 89.424C178.236 89.676 178.452 89.856 178.704 89.892L178.632 89.856H178.704L178.92 89.928C179.172 90 179.388 90.072 179.64 90.18L179.748 90.216L179.964 90.324L180.144 90.432L180.216 90.504C180.036 90.396 180.18 90.468 180.216 90.504C180.252 90.54 180.324 90.576 180.36 90.648C180.216 90.504 180.288 90.576 180.324 90.648C180.36 90.684 180.36 90.684 180.396 90.72C180.468 90.792 180.324 90.576 180.396 90.684C180.396 90.72 180.432 90.72 180.432 90.756C180.468 90.828 180.396 90.648 180.396 90.684C180.396 90.72 180.396 90.72 180.396 90.72C180.396 90.792 180.396 90.828 180.396 90.9C180.396 90.9 180.432 90.792 180.396 90.864V90.9C180.396 90.936 180.36 90.972 180.36 91.008C180.324 91.044 180.324 91.08 180.324 91.116C180.324 91.08 180.36 91.044 180.324 91.08L180.288 91.116C180.216 91.188 180.18 91.26 180.108 91.332C180.072 91.368 180.072 91.368 180.036 91.404L180 91.44C179.964 91.476 180.072 91.404 180 91.404C179.928 91.44 179.892 91.476 179.82 91.512C179.748 91.548 179.928 91.476 179.82 91.512H179.748C179.676 91.512 179.892 91.512 179.784 91.512H179.748C179.712 91.512 179.856 91.548 179.82 91.512L179.748 91.476C179.892 91.512 179.856 91.512 179.784 91.476L179.748 91.44C179.676 91.404 179.892 91.548 179.82 91.476L179.748 91.404C179.676 91.332 179.856 91.512 179.784 91.44L179.712 91.368L179.676 91.296L179.64 91.26C179.604 91.188 179.712 91.404 179.676 91.296C179.604 91.188 179.532 91.044 179.46 90.936C179.424 90.864 179.424 90.828 179.388 90.756C179.388 90.792 179.46 90.9 179.388 90.756C179.388 90.72 179.352 90.684 179.352 90.648C179.208 90.252 179.1 89.856 179.028 89.424C178.956 89.172 178.74 88.992 178.488 88.956C178.344 88.92 178.164 89.028 178.164 89.208C178.092 89.316 178.092 89.388 178.128 89.424Z" fill="white"/>
<path d="M203.868 56.16V63.288C203.868 63.576 205.668 63.648 205.668 63.396V56.268C205.668 55.98 203.868 55.908 203.868 56.16Z" fill="#000005"/>
<path d="M133.668 64.224V76.428C133.668 76.644 135.468 76.68 135.468 76.5V64.296C135.468 64.08 133.668 64.044 133.668 64.224Z" fill="#000005"/>
<path d="M122.796 87.012V97.524C122.796 98.028 124.488 98.568 124.488 97.956V87.444C124.488 86.904 122.796 86.4 122.796 87.012Z" fill="#000005"/>
<path d="M108.756 66.492V84.132C108.756 84.456 109.224 84.816 109.44 84.996C109.512 85.068 110.088 85.5 110.088 85.248V67.608C110.088 67.284 109.62 66.924 109.404 66.708C109.332 66.672 108.756 66.24 108.756 66.492Z" fill="#000005"/>
<path d="M231.804 61.056V75.312C231.804 75.456 232.632 75.06 232.668 75.024C232.848 74.916 233.388 74.7 233.388 74.448V60.192C233.388 60.048 232.56 60.444 232.524 60.48C232.344 60.552 231.804 60.804 231.804 61.056Z" fill="#000005"/>
<path d="M217.116 71.964V86.22C217.116 87.084 218.844 86.688 218.844 85.932V71.676C218.844 70.812 217.116 71.208 217.116 71.964Z" fill="#000005"/>
<path d="M237.458 189.162V199.029M232.524 194.095H242.392" stroke="#326144" stroke-width="1.4096" stroke-linecap="round" stroke-linejoin="round"/>
<path d="M85.7305 194.024V203.891M80.7969 198.958H90.664" stroke="#326144" stroke-width="1.4096" stroke-linecap="round" stroke-linejoin="round"/>
<circle cx="84.365" cy="57.7364" r="1.36503" fill="#326144"/>
<circle cx="259.374" cy="153.237" r="1.36503" fill="#326144"/>
</g>
<defs>
<clipPath id="clip0_18613_6847">
<rect width="331" height="233" fill="white" transform="translate(0 0.5)"/>
</clipPath>
</defs>
</svg>
