<svg width="31" height="24" viewBox="0 0 31 24" fill="none" xmlns="http://www.w3.org/2000/svg">
<g clip-path="url(#clip0_15313_7231)">
<rect width="30.8571" height="24" rx="4" fill="#2E42A5"/>
<path d="M-3.43604 22.2851L3.35417 25.2632L31.0111 3.23756L34.5928 -1.18792L27.3316 -2.18327L16.051 7.3082L6.9713 13.7032L-3.43604 22.2851Z" fill="#F7FCFF"/>
<path d="M-2.50635 24.3719L0.952947 26.1001L33.3067 -1.59884H28.4494L-2.50635 24.3719Z" fill="#F50100"/>
<path d="M34.2935 22.2851L27.5033 25.2632L-0.153652 3.23756L-3.73533 -1.18792L3.52582 -2.18327L14.8064 7.3082L23.8861 13.7032L34.2935 22.2851Z" fill="#F7FCFF"/>
<path d="M34.0615 23.7825L30.6022 25.5107L16.8257 13.6514L12.7412 12.3264L-4.08021 -1.17283H0.77704L17.589 12.006L22.0546 13.5948L34.0615 23.7825Z" fill="#F50100"/>
<path fill-rule="evenodd" clip-rule="evenodd" d="M16.6876 0H13.259V10.2857H-0.428711V13.7143H13.259V24H16.6876V13.7143H30.4284V10.2857H16.6876V0Z" fill="#F50100"/>
<path fill-rule="evenodd" clip-rule="evenodd" d="M10.6876 0H19.259V7.71429H30.4284V16.2857H19.259L19.2856 24H10.7141L10.6876 16.2857H-0.428711V7.71429H10.6876V0ZM13.259 10.2857H-0.428711V13.7143H13.259V24H16.6876V13.7143H30.4284V10.2857H16.6876V0H13.259V10.2857Z" fill="#F7FCFF"/>
</g>
<defs>
<clipPath id="clip0_15313_7231">
<rect width="30.8571" height="24" rx="4" fill="white"/>
</clipPath>
</defs>
</svg>
