<svg width="71" height="71" viewBox="0 0 71 71" fill="none" xmlns="http://www.w3.org/2000/svg">
<path d="M59 61.9375C59 57.838 59 55.7883 58.4941 54.1204C57.3549 50.3651 54.4162 47.4264 50.6609 46.2872C48.993 45.7812 46.9432 45.7812 42.8437 45.7812H28.1563C24.0568 45.7812 22.007 45.7812 20.3391 46.2872C16.5838 47.4264 13.6451 50.3651 12.506 54.1204C12 55.7883 12 57.838 12 61.9375M48.7188 22.2813C48.7188 29.5818 42.8005 35.5 35.5 35.5C28.1995 35.5 22.2813 29.5818 22.2813 22.2813C22.2813 14.9807 28.1995 9.0625 35.5 9.0625C42.8005 9.0625 48.7188 14.9807 48.7188 22.2813Z" stroke="#4A5465" stroke-width="4" stroke-linecap="round" stroke-linejoin="round"/>
</svg>
